<svg width="512" height="512" version="1.1" xmlns="http://www.w3.org/2000/svg" desc="Created with imagetracer.js version 1.2.6" ><path fill="rgb(202,72,54)" stroke="rgb(202,72,54)" stroke-width="1" opacity="1" d="M 350.5 109 L 357 109.5 L 350.5 110 L 350.5 109 Z " /><path fill="rgb(202,72,54)" stroke="rgb(202,72,54)" stroke-width="1" opacity="1" d="M 177.5 122 L 170.5 130 L 177.5 122 Z " /><path fill="rgb(202,72,54)" stroke="rgb(202,72,54)" stroke-width="1" opacity="1" d="M 228.5 128 L 226.5 131 L 228.5 128 Z " /><path fill="rgb(202,72,54)" stroke="rgb(202,72,54)" stroke-width="1" opacity="1" d="M 311.5 132 L 310.5 134 L 311.5 132 Z " /><path fill="rgb(202,72,54)" stroke="rgb(202,72,54)" stroke-width="1" opacity="1" d="M 90.5 179 L 93 179.5 L 90.5 180 L 90.5 179 Z " /><path fill="rgb(202,72,54)" stroke="rgb(202,72,54)" stroke-width="1" opacity="1" d="M 479.5 182 L 480 189.5 L 479 189.5 L 479.5 182 Z " /><path fill="rgb(202,72,54)" stroke="rgb(202,72,54)" stroke-width="1" opacity="1" d="M 59.5 185 L 58.5 187 L 59.5 185 Z " /><path fill="rgb(202,72,54)" stroke="rgb(202,72,54)" stroke-width="1" opacity="1" d="M 73.5 203 L 76 203.5 L 73.5 204 L 73.5 203 Z " /><path fill="rgb(202,72,54)" stroke="rgb(202,72,54)" stroke-width="1" opacity="1" d="M 54.5 213 L 53.5 215 L 54.5 213 Z " /><path fill="rgb(202,72,54)" stroke="rgb(202,72,54)" stroke-width="1" opacity="1" d="M 68.5 222 L 67.5 224 L 68.5 222 Z " /><path fill="rgb(202,72,54)" stroke="rgb(202,72,54)" stroke-width="1" opacity="1" d="M 159.5 231 L 165 231.5 L 159.5 232 L 159.5 231 Z " /><path fill="rgb(202,72,54)" stroke="rgb(202,72,54)" stroke-width="1" opacity="1" d="M 432.5 238 L 433.5 240 L 432.5 238 Z " /><path fill="rgb(202,72,54)" stroke="rgb(202,72,54)" stroke-width="1" opacity="1" d="M 313.5 309 L 312.5 311 L 313.5 309 Z " /><path fill="rgb(202,72,54)" stroke="rgb(202,72,54)" stroke-width="1" opacity="1" d="M 87.5 328 L 86.5 330 L 87.5 328 Z " /><path fill="rgb(202,72,54)" stroke="rgb(202,72,54)" stroke-width="1" opacity="1" d="M 389.5 328 L 410.5 328 L 411.5 329 L 431.5 330 L 450.5 334 L 465 339 Q 466.1 341.7 463.5 341 L 450.5 346 L 431.5 350 L 411.5 351 L 410.5 352 L 389.5 352 L 388.5 351 L 376.5 351 L 375.5 350 L 357.5 348 L 335 341 Q 333.9 338.3 336.5 339 L 357.5 332 L 375.5 330 L 376.5 329 L 388.5 329 L 389.5 328 Z " /><path fill="rgb(202,72,54)" stroke="rgb(202,72,54)" stroke-width="1" opacity="1" d="M 144.5 345 L 145 347.5 L 144 347.5 L 144.5 345 Z " /><path fill="rgb(202,72,54)" stroke="rgb(202,72,54)" stroke-width="1" opacity="1" d="M 223.5 354 L 222.5 356 L 223.5 354 Z " /><path fill="rgb(0,0,0)" stroke="rgb(0,0,0)" stroke-width="1" opacity="0.5333333333333333" d="M 272.5 43 L 275 43.5 L 272.5 44 L 272.5 43 Z " /><path fill="rgb(0,0,0)" stroke="rgb(0,0,0)" stroke-width="1" opacity="0.5333333333333333" d="M 284.5 43 L 288 43.5 L 284.5 44 L 284.5 43 Z " /><path fill="rgb(0,0,0)" stroke="rgb(0,0,0)" stroke-width="1" opacity="0.5333333333333333" d="M 349.5 59 L 352 59.5 L 349.5 60 L 349.5 59 Z " /><path fill="rgb(0,0,0)" stroke="rgb(0,0,0)" stroke-width="1" opacity="0.5333333333333333" d="M 357.5 59 L 361 59.5 L 357.5 60 L 357.5 59 Z " /><path fill="rgb(0,0,0)" stroke="rgb(0,0,0)" stroke-width="1" opacity="0.5333333333333333" d="M 240.5 60 L 239.5 62 L 240.5 60 Z " /><path fill="rgb(0,0,0)" stroke="rgb(0,0,0)" stroke-width="1" opacity="0.5333333333333333" d="M 335.5 61 L 341 61.5 L 335.5 62 L 335.5 61 Z " /><path fill="rgb(0,0,0)" stroke="rgb(0,0,0)" stroke-width="1" opacity="0.5333333333333333" d="M 370.5 64 L 376.5 71 L 370.5 64 Z " /><path fill="rgb(0,0,0)" stroke="rgb(0,0,0)" stroke-width="1" opacity="0.5333333333333333" d="M 380.5 73 L 381.5 75 L 380.5 73 Z " /><path fill="rgb(0,0,0)" stroke="rgb(0,0,0)" stroke-width="1" opacity="0.5333333333333333" d="M 385.5 77 L 386.5 79 L 385.5 77 Z " /><path fill="rgb(0,0,0)" stroke="rgb(0,0,0)" stroke-width="1" opacity="0.5333333333333333" d="M 188.5 79 L 187.5 81 L 188.5 79 Z " /><path fill="rgb(0,0,0)" stroke="rgb(0,0,0)" stroke-width="1" opacity="0.5333333333333333" d="M 389.5 80 L 391.5 83 L 389.5 80 Z " /><path fill="rgb(0,0,0)" stroke="rgb(0,0,0)" stroke-width="1" opacity="0.5333333333333333" d="M 183.5 84 L 181.5 87 L 183.5 84 Z " /><path fill="rgb(0,0,0)" stroke="rgb(0,0,0)" stroke-width="1" opacity="0.5333333333333333" d="M 394.5 84 L 404.5 95 L 394.5 84 Z " /><path fill="rgb(0,0,0)" stroke="rgb(0,0,0)" stroke-width="1" opacity="0.5333333333333333" d="M 180.5 88 L 179.5 90 L 180.5 88 Z " /><path fill="rgb(0,0,0)" stroke="rgb(0,0,0)" stroke-width="1" opacity="0.5333333333333333" d="M 178.5 91 L 177.5 93 L 178.5 91 Z " /><path fill="rgb(0,0,0)" stroke="rgb(0,0,0)" stroke-width="1" opacity="0.5333333333333333" d="M 59.5 92 L 66 92.5 L 59.5 93 L 59.5 92 Z " /><path fill="rgb(0,0,0)" stroke="rgb(0,0,0)" stroke-width="1" opacity="0.5333333333333333" d="M 72.5 94 L 75 94.5 L 72.5 95 L 72.5 94 Z " /><path fill="rgb(0,0,0)" stroke="rgb(0,0,0)" stroke-width="1" opacity="0.5333333333333333" d="M 78.5 95 L 81 95.5 L 78.5 96 L 78.5 95 Z " /><path fill="rgb(0,0,0)" stroke="rgb(0,0,0)" stroke-width="1" opacity="0.5333333333333333" d="M 50.5 98 L 49.5 100 L 50.5 98 Z " /><path fill="rgb(0,0,0)" stroke="rgb(0,0,0)" stroke-width="1" opacity="0.5333333333333333" d="M 174.5 98 L 173.5 100 L 174.5 98 Z " /><path fill="rgb(0,0,0)" stroke="rgb(0,0,0)" stroke-width="1" opacity="0.5333333333333333" d="M 94.5 100 L 95.5 102 L 94.5 100 Z " /><path fill="rgb(0,0,0)" stroke="rgb(0,0,0)" stroke-width="1" opacity="0.5333333333333333" d="M 97.5 102 L 99.5 105 L 97.5 102 Z " /><path fill="rgb(0,0,0)" stroke="rgb(0,0,0)" stroke-width="1" opacity="0.5333333333333333" d="M 170.5 105 L 169.5 107 L 170.5 105 Z " /><path fill="rgb(0,0,0)" stroke="rgb(0,0,0)" stroke-width="1" opacity="0.5333333333333333" d="M 419.5 107 L 427 107.5 L 419.5 108 L 419.5 107 Z " /><path fill="rgb(0,0,0)" stroke="rgb(0,0,0)" stroke-width="1" opacity="0.5333333333333333" d="M 167.5 109 L 157.5 120 L 167.5 109 Z " /><path fill="rgb(0,0,0)" stroke="rgb(0,0,0)" stroke-width="1" opacity="0.5333333333333333" d="M 103.5 113 L 104 115.5 L 103 115.5 L 103.5 113 Z " /><path fill="rgb(0,0,0)" stroke="rgb(0,0,0)" stroke-width="1" opacity="0.5333333333333333" d="M 103.5 122 L 104 124.5 L 103 124.5 L 103.5 122 Z " /><path fill="rgb(0,0,0)" stroke="rgb(0,0,0)" stroke-width="1" opacity="0.5333333333333333" d="M 153.5 124 L 151.5 127 L 153.5 124 Z " /><path fill="rgb(0,0,0)" stroke="rgb(0,0,0)" stroke-width="1" opacity="0.5333333333333333" d="M 50.5 126 L 51 128.5 L 50 128.5 L 50.5 126 Z " /><path fill="rgb(0,0,0)" stroke="rgb(0,0,0)" stroke-width="1" opacity="0.5333333333333333" d="M 471.5 128 L 472.5 130 L 471.5 128 Z " /><path fill="rgb(0,0,0)" stroke="rgb(0,0,0)" stroke-width="1" opacity="0.5333333333333333" d="M 149.5 129 L 148.5 131 L 149.5 129 Z " /><path fill="rgb(0,0,0)" stroke="rgb(0,0,0)" stroke-width="1" opacity="0.5333333333333333" d="M 475.5 131 L 482.5 139 L 475.5 131 Z " /><path fill="rgb(0,0,0)" stroke="rgb(0,0,0)" stroke-width="1" opacity="0.5333333333333333" d="M 147.5 132 L 146.5 134 L 147.5 132 Z " /><path fill="rgb(0,0,0)" stroke="rgb(0,0,0)" stroke-width="1" opacity="0.5333333333333333" d="M 145.5 135 L 143.5 138 L 145.5 135 Z " /><path fill="rgb(0,0,0)" stroke="rgb(0,0,0)" stroke-width="1" opacity="0.5333333333333333" d="M 52.5 136 L 53.5 138 L 52.5 136 Z " /><path fill="rgb(0,0,0)" stroke="rgb(0,0,0)" stroke-width="1" opacity="0.5333333333333333" d="M 94.5 137 L 93.5 139 L 94.5 137 Z " /><path fill="rgb(0,0,0)" stroke="rgb(0,0,0)" stroke-width="1" opacity="0.5333333333333333" d="M 141.5 140 L 137.5 145 L 141.5 140 Z " /><path fill="rgb(0,0,0)" stroke="rgb(0,0,0)" stroke-width="1" opacity="0.5333333333333333" d="M 67.5 143 L 70 143.5 L 67.5 144 L 67.5 143 Z " /><path fill="rgb(0,0,0)" stroke="rgb(0,0,0)" stroke-width="1" opacity="0.5333333333333333" d="M 78.5 143 L 81 143.5 L 78.5 144 L 78.5 143 Z " /><path fill="rgb(0,0,0)" stroke="rgb(0,0,0)" stroke-width="1" opacity="0.5333333333333333" d="M 133.5 147 L 132.5 149 L 133.5 147 Z " /><path fill="rgb(0,0,0)" stroke="rgb(0,0,0)" stroke-width="1" opacity="0.5333333333333333" d="M 129.5 150 L 128.5 152 L 129.5 150 Z " /><path fill="rgb(0,0,0)" stroke="rgb(0,0,0)" stroke-width="1" opacity="0.5333333333333333" d="M 124.5 153 L 123.5 155 L 124.5 153 Z " /><path fill="rgb(0,0,0)" stroke="rgb(0,0,0)" stroke-width="1" opacity="0.5333333333333333" d="M 98.5 162 L 101 162.5 L 98.5 163 L 98.5 162 Z " /><path fill="rgb(0,0,0)" stroke="rgb(0,0,0)" stroke-width="1" opacity="0.5333333333333333" d="M 75.5 163 L 92 163.5 L 75.5 164 L 75.5 163 Z " /><path fill="rgb(0,0,0)" stroke="rgb(0,0,0)" stroke-width="1" opacity="0.5333333333333333" d="M 69.5 164 L 72 164.5 L 69.5 165 L 69.5 164 Z " /><path fill="rgb(0,0,0)" stroke="rgb(0,0,0)" stroke-width="1" opacity="0.5333333333333333" d="M 494.5 168 L 495 170.5 L 494 170.5 L 494.5 168 Z " /><path fill="rgb(0,0,0)" stroke="rgb(0,0,0)" stroke-width="1" opacity="0.5333333333333333" d="M 52.5 170 L 51.5 172 L 52.5 170 Z " /><path fill="rgb(0,0,0)" stroke="rgb(0,0,0)" stroke-width="1" opacity="0.5333333333333333" d="M 48.5 173 L 46.5 176 L 48.5 173 Z " /><path fill="rgb(0,0,0)" stroke="rgb(0,0,0)" stroke-width="1" opacity="0.5333333333333333" d="M 495.5 176 L 496 198.5 L 495 198.5 L 495.5 176 Z " /><path fill="rgb(0,0,0)" stroke="rgb(0,0,0)" stroke-width="1" opacity="0.5333333333333333" d="M 43.5 179 L 42.5 181 L 43.5 179 Z " /><path fill="rgb(0,0,0)" stroke="rgb(0,0,0)" stroke-width="1" opacity="0.5333333333333333" d="M 41.5 182 L 40.5 184 L 41.5 182 Z " /><path fill="rgb(0,0,0)" stroke="rgb(0,0,0)" stroke-width="1" opacity="0.5333333333333333" d="M 38.5 186 L 37.5 188 L 38.5 186 Z " /><path fill="rgb(0,0,0)" stroke="rgb(0,0,0)" stroke-width="1" opacity="0.5333333333333333" d="M 26.5 199 L 24.5 202 L 26.5 199 Z " /><path fill="rgb(0,0,0)" stroke="rgb(0,0,0)" stroke-width="1" opacity="0.5333333333333333" d="M 22.5 204 L 21.5 206 L 22.5 204 Z " /><path fill="rgb(0,0,0)" stroke="rgb(0,0,0)" stroke-width="1" opacity="0.5333333333333333" d="M 20.5 207 L 19.5 209 L 20.5 207 Z " /><path fill="rgb(0,0,0)" stroke="rgb(0,0,0)" stroke-width="1" opacity="0.5333333333333333" d="M 494.5 207 L 495 211.5 L 494 211.5 L 494.5 207 Z " /><path fill="rgb(0,0,0)" stroke="rgb(0,0,0)" stroke-width="1" opacity="0.5333333333333333" d="M 15.5 219 L 16 221.5 L 15 221.5 L 15.5 219 Z " /><path fill="rgb(0,0,0)" stroke="rgb(0,0,0)" stroke-width="1" opacity="0.5333333333333333" d="M 15.5 230 L 16 233.5 L 15 233.5 L 15.5 230 Z " /><path fill="rgb(0,0,0)" stroke="rgb(0,0,0)" stroke-width="1" opacity="0.5333333333333333" d="M 18.5 242 L 19.5 244 L 18.5 242 Z " /><path fill="rgb(0,0,0)" stroke="rgb(0,0,0)" stroke-width="1" opacity="0.5333333333333333" d="M 20.5 245 L 21.5 247 L 20.5 245 Z " /><path fill="rgb(0,0,0)" stroke="rgb(0,0,0)" stroke-width="1" opacity="0.5333333333333333" d="M 150.5 248 L 153 248.5 L 150.5 249 L 150.5 248 Z " /><path fill="rgb(0,0,0)" stroke="rgb(0,0,0)" stroke-width="1" opacity="0.5333333333333333" d="M 170.5 248 L 173 248.5 L 170.5 249 L 170.5 248 Z " /><path fill="rgb(0,0,0)" stroke="rgb(0,0,0)" stroke-width="1" opacity="0.5333333333333333" d="M 144.5 249 L 147 249.5 L 144.5 250 L 144.5 249 Z " /><path fill="rgb(0,0,0)" stroke="rgb(0,0,0)" stroke-width="1" opacity="0.5333333333333333" d="M 26.5 251 L 28.5 254 L 26.5 251 Z " /><path fill="rgb(0,0,0)" stroke="rgb(0,0,0)" stroke-width="1" opacity="0.5333333333333333" d="M 190.5 253 L 193 253.5 L 190.5 254 L 190.5 253 Z " /><path fill="rgb(0,0,0)" stroke="rgb(0,0,0)" stroke-width="1" opacity="0.5333333333333333" d="M 30.5 254 L 31.5 256 L 30.5 254 Z " /><path fill="rgb(0,0,0)" stroke="rgb(0,0,0)" stroke-width="1" opacity="0.5333333333333333" d="M 199.5 254 L 212 254.5 L 199.5 255 L 199.5 254 Z " /><path fill="rgb(0,0,0)" stroke="rgb(0,0,0)" stroke-width="1" opacity="0.5333333333333333" d="M 35.5 257 L 36.5 259 L 35.5 257 Z " /><path fill="rgb(0,0,0)" stroke="rgb(0,0,0)" stroke-width="1" opacity="0.5333333333333333" d="M 119.5 259 L 118.5 261 L 119.5 259 Z " /><path fill="rgb(0,0,0)" stroke="rgb(0,0,0)" stroke-width="1" opacity="0.5333333333333333" d="M 116.5 261 L 115.5 263 L 116.5 261 Z " /><path fill="rgb(0,0,0)" stroke="rgb(0,0,0)" stroke-width="1" opacity="0.5333333333333333" d="M 212.5 261 L 210.5 264 L 212.5 261 Z " /><path fill="rgb(0,0,0)" stroke="rgb(0,0,0)" stroke-width="1" opacity="0.5333333333333333" d="M 113.5 263 L 112.5 265 L 113.5 263 Z " /><path fill="rgb(0,0,0)" stroke="rgb(0,0,0)" stroke-width="1" opacity="0.5333333333333333" d="M 474.5 267 L 475 269.5 L 474 269.5 L 474.5 267 Z " /><path fill="rgb(0,0,0)" stroke="rgb(0,0,0)" stroke-width="1" opacity="0.5333333333333333" d="M 86.5 274 L 89 274.5 L 86.5 275 L 86.5 274 Z " /><path fill="rgb(0,0,0)" stroke="rgb(0,0,0)" stroke-width="1" opacity="0.5333333333333333" d="M 78.5 275 L 82 275.5 L 78.5 276 L 78.5 275 Z " /><path fill="rgb(0,0,0)" stroke="rgb(0,0,0)" stroke-width="1" opacity="0.5333333333333333" d="M 159.5 285 L 158.5 287 L 159.5 285 Z " /><path fill="rgb(0,0,0)" stroke="rgb(0,0,0)" stroke-width="1" opacity="0.5333333333333333" d="M 156.5 287 L 154.5 290 L 156.5 287 Z " /><path fill="rgb(0,0,0)" stroke="rgb(0,0,0)" stroke-width="1" opacity="0.5333333333333333" d="M 466.5 288 L 465.5 290 L 466.5 288 Z " /><path fill="rgb(0,0,0)" stroke="rgb(0,0,0)" stroke-width="1" opacity="0.5333333333333333" d="M 152.5 291 L 149.5 295 L 152.5 291 Z " /><path fill="rgb(0,0,0)" stroke="rgb(0,0,0)" stroke-width="1" opacity="0.5333333333333333" d="M 464.5 291 L 463.5 293 L 464.5 291 Z " /><path fill="rgb(0,0,0)" stroke="rgb(0,0,0)" stroke-width="1" opacity="0.5333333333333333" d="M 68.5 296 L 74 296.5 L 68.5 297 L 68.5 296 Z " /><path fill="rgb(0,0,0)" stroke="rgb(0,0,0)" stroke-width="1" opacity="0.5333333333333333" d="M 148.5 296 L 147.5 298 L 148.5 296 Z " /><path fill="rgb(0,0,0)" stroke="rgb(0,0,0)" stroke-width="1" opacity="0.5333333333333333" d="M 62.5 297 L 65 297.5 L 62.5 298 L 62.5 297 Z " /><path fill="rgb(0,0,0)" stroke="rgb(0,0,0)" stroke-width="1" opacity="0.5333333333333333" d="M 45.5 303 L 42.5 307 L 45.5 303 Z " /><path fill="rgb(0,0,0)" stroke="rgb(0,0,0)" stroke-width="1" opacity="0.5333333333333333" d="M 95.5 305 L 96.5 307 L 95.5 305 Z " /><path fill="rgb(0,0,0)" stroke="rgb(0,0,0)" stroke-width="1" opacity="0.5333333333333333" d="M 482.5 306 L 483.5 308 L 482.5 306 Z " /><path fill="rgb(0,0,0)" stroke="rgb(0,0,0)" stroke-width="1" opacity="0.5333333333333333" d="M 486.5 309 L 490.5 314 L 486.5 309 Z " /><path fill="rgb(0,0,0)" stroke="rgb(0,0,0)" stroke-width="1" opacity="0.5333333333333333" d="M 139.5 316 L 138.5 318 L 139.5 316 Z " /><path fill="rgb(0,0,0)" stroke="rgb(0,0,0)" stroke-width="1" opacity="0.5333333333333333" d="M 103.5 323 L 104 325.5 L 103 325.5 L 103.5 323 Z " /><path fill="rgb(0,0,0)" stroke="rgb(0,0,0)" stroke-width="1" opacity="0.5333333333333333" d="M 495.5 330 L 496 333.5 L 495 333.5 L 495.5 330 Z " /><path fill="rgb(0,0,0)" stroke="rgb(0,0,0)" stroke-width="1" opacity="0.5333333333333333" d="M 283.5 337 L 287 337.5 L 283.5 338 L 283.5 337 Z " /><path fill="rgb(0,0,0)" stroke="rgb(0,0,0)" stroke-width="1" opacity="0.5333333333333333" d="M 296.5 337 L 304.5 337 L 306 338.5 L 305.5 341 L 305 338 L 296.5 338 L 296.5 337 Z " /><path fill="rgb(0,0,0)" stroke="rgb(0,0,0)" stroke-width="1" opacity="0.5333333333333333" d="M 494.5 337 L 495 340.5 L 494 340.5 L 494.5 337 Z " /><path fill="rgb(0,0,0)" stroke="rgb(0,0,0)" stroke-width="1" opacity="0.5333333333333333" d="M 100.5 338 L 97.5 342 L 100.5 338 Z " /><path fill="rgb(0,0,0)" stroke="rgb(0,0,0)" stroke-width="1" opacity="0.5333333333333333" d="M 128.5 341 L 129 350.5 L 128 350.5 L 128.5 341 Z " /><path fill="rgb(0,0,0)" stroke="rgb(0,0,0)" stroke-width="1" opacity="0.5333333333333333" d="M 92.5 344 L 91.5 346 L 90 345.5 L 92.5 344 Z " /><path fill="rgb(0,0,0)" stroke="rgb(0,0,0)" stroke-width="1" opacity="0.5333333333333333" d="M 306.5 344 L 307 347.5 L 306 347.5 L 306.5 344 Z " /><path fill="rgb(0,0,0)" stroke="rgb(0,0,0)" stroke-width="1" opacity="0.5333333333333333" d="M 493.5 344 L 494 347.5 L 493 347.5 L 493.5 344 Z " /><path fill="rgb(0,0,0)" stroke="rgb(0,0,0)" stroke-width="1" opacity="0.5333333333333333" d="M 47.5 349 L 50 350.5 L 48.5 351 L 47.5 349 Z " /><path fill="rgb(0,0,0)" stroke="rgb(0,0,0)" stroke-width="1" opacity="0.5333333333333333" d="M 70.5 350 L 74 350.5 L 70.5 351 L 70.5 350 Z " /><path fill="rgb(0,0,0)" stroke="rgb(0,0,0)" stroke-width="1" opacity="0.5333333333333333" d="M 51.5 351 L 65 351.5 L 51.5 352 L 51.5 351 Z " /><path fill="rgb(0,0,0)" stroke="rgb(0,0,0)" stroke-width="1" opacity="0.5333333333333333" d="M 307.5 351 L 308 354.5 L 307 354.5 L 307.5 351 Z " /><path fill="rgb(0,0,0)" stroke="rgb(0,0,0)" stroke-width="1" opacity="0.5333333333333333" d="M 492.5 351 L 493 354.5 L 492 354.5 L 492.5 351 Z " /><path fill="rgb(0,0,0)" stroke="rgb(0,0,0)" stroke-width="1" opacity="0.5333333333333333" d="M 248.5 352 L 246.5 355 L 248.5 352 Z " /><path fill="rgb(0,0,0)" stroke="rgb(0,0,0)" stroke-width="1" opacity="0.5333333333333333" d="M 241.5 358 L 240.5 360 L 241.5 358 Z " /><path fill="rgb(0,0,0)" stroke="rgb(0,0,0)" stroke-width="1" opacity="0.5333333333333333" d="M 308.5 358 L 309 361.5 L 308 361.5 L 308.5 358 Z " /><path fill="rgb(0,0,0)" stroke="rgb(0,0,0)" stroke-width="1" opacity="0.5333333333333333" d="M 491.5 358 L 492 361.5 L 491 361.5 L 491.5 358 Z " /><path fill="rgb(0,0,0)" stroke="rgb(0,0,0)" stroke-width="1" opacity="0.5333333333333333" d="M 235.5 365 L 227.5 374 L 235.5 365 Z " /><path fill="rgb(0,0,0)" stroke="rgb(0,0,0)" stroke-width="1" opacity="0.5333333333333333" d="M 309.5 365 L 310 368.5 L 309 368.5 L 309.5 365 Z " /><path fill="rgb(0,0,0)" stroke="rgb(0,0,0)" stroke-width="1" opacity="0.5333333333333333" d="M 490.5 365 L 491 368.5 L 490 368.5 L 490.5 365 Z " /><path fill="rgb(0,0,0)" stroke="rgb(0,0,0)" stroke-width="1" opacity="0.5333333333333333" d="M 134.5 366 L 135.5 368 L 134.5 366 Z " /><path fill="rgb(0,0,0)" stroke="rgb(0,0,0)" stroke-width="1" opacity="0.5333333333333333" d="M 310.5 372 L 311 375.5 L 310 375.5 L 310.5 372 Z " /><path fill="rgb(0,0,0)" stroke="rgb(0,0,0)" stroke-width="1" opacity="0.5333333333333333" d="M 489.5 372 L 490 375.5 L 489 375.5 L 489.5 372 Z " /><path fill="rgb(0,0,0)" stroke="rgb(0,0,0)" stroke-width="1" opacity="0.5333333333333333" d="M 224.5 375 L 222.5 378 L 224.5 375 Z " /><path fill="rgb(0,0,0)" stroke="rgb(0,0,0)" stroke-width="1" opacity="0.5333333333333333" d="M 220.5 378 L 219.5 380 L 220.5 378 Z " /><path fill="rgb(0,0,0)" stroke="rgb(0,0,0)" stroke-width="1" opacity="0.5333333333333333" d="M 311.5 379 L 312 382.5 L 311 382.5 L 311.5 379 Z " /><path fill="rgb(0,0,0)" stroke="rgb(0,0,0)" stroke-width="1" opacity="0.5333333333333333" d="M 488.5 379 L 489 382.5 L 488 382.5 L 488.5 379 Z " /><path fill="rgb(0,0,0)" stroke="rgb(0,0,0)" stroke-width="1" opacity="0.5333333333333333" d="M 161.5 381 L 164 381.5 L 161.5 382 L 161.5 381 Z " /><path fill="rgb(0,0,0)" stroke="rgb(0,0,0)" stroke-width="1" opacity="0.5333333333333333" d="M 215.5 381 L 214.5 383 L 215.5 381 Z " /><path fill="rgb(0,0,0)" stroke="rgb(0,0,0)" stroke-width="1" opacity="0.5333333333333333" d="M 166.5 382 L 169 382.5 L 166.5 383 L 166.5 382 Z " /><path fill="rgb(0,0,0)" stroke="rgb(0,0,0)" stroke-width="1" opacity="0.5333333333333333" d="M 171.5 383 L 174 383.5 L 171.5 384 L 171.5 383 Z " /><path fill="rgb(0,0,0)" stroke="rgb(0,0,0)" stroke-width="1" opacity="0.5333333333333333" d="M 185.5 386 L 188 386.5 L 185.5 387 L 185.5 386 Z " /><path fill="rgb(0,0,0)" stroke="rgb(0,0,0)" stroke-width="1" opacity="0.5333333333333333" d="M 268.5 386 L 272.5 391 L 268.5 386 Z " /><path fill="rgb(0,0,0)" stroke="rgb(0,0,0)" stroke-width="1" opacity="0.5333333333333333" d="M 312.5 386 L 313 389.5 L 312 389.5 L 312.5 386 Z " /><path fill="rgb(0,0,0)" stroke="rgb(0,0,0)" stroke-width="1" opacity="0.5333333333333333" d="M 487.5 386 L 488 389.5 L 487 389.5 L 487.5 386 Z " /><path fill="rgb(0,0,0)" stroke="rgb(0,0,0)" stroke-width="1" opacity="0.5333333333333333" d="M 191.5 387 L 199 387.5 L 191.5 388 L 191.5 387 Z " /><path fill="rgb(0,0,0)" stroke="rgb(0,0,0)" stroke-width="1" opacity="0.5333333333333333" d="M 92.5 388 L 95 388.5 L 92.5 389 L 92.5 388 Z " /><path fill="rgb(0,0,0)" stroke="rgb(0,0,0)" stroke-width="1" opacity="0.5333333333333333" d="M 101.5 391 L 103.5 394 L 101.5 391 Z " /><path fill="rgb(0,0,0)" stroke="rgb(0,0,0)" stroke-width="1" opacity="0.5333333333333333" d="M 246.5 391 L 240.5 398 L 246.5 391 Z " /><path fill="rgb(0,0,0)" stroke="rgb(0,0,0)" stroke-width="1" opacity="0.5333333333333333" d="M 313.5 393 L 314 396.5 L 313 396.5 L 313.5 393 Z " /><path fill="rgb(0,0,0)" stroke="rgb(0,0,0)" stroke-width="1" opacity="0.5333333333333333" d="M 486.5 393 L 487 396.5 L 486 396.5 L 486.5 393 Z " /><path fill="rgb(0,0,0)" stroke="rgb(0,0,0)" stroke-width="1" opacity="0.5333333333333333" d="M 114.5 394 L 122 394.5 L 114.5 395 L 114.5 394 Z " /><path fill="rgb(0,0,0)" stroke="rgb(0,0,0)" stroke-width="1" opacity="0.5333333333333333" d="M 106.5 395 L 107.5 397 L 106.5 395 Z " /><path fill="rgb(0,0,0)" stroke="rgb(0,0,0)" stroke-width="1" opacity="0.5333333333333333" d="M 123.5 395 L 126 396.5 L 124.5 396 L 123.5 395 Z " /><path fill="rgb(0,0,0)" stroke="rgb(0,0,0)" stroke-width="1" opacity="0.5333333333333333" d="M 314.5 400 L 315 403.5 L 314 403.5 L 314.5 400 Z " /><path fill="rgb(0,0,0)" stroke="rgb(0,0,0)" stroke-width="1" opacity="0.5333333333333333" d="M 485.5 400 L 486 403.5 L 485 403.5 L 485.5 400 Z " /><path fill="rgb(0,0,0)" stroke="rgb(0,0,0)" stroke-width="1" opacity="0.5333333333333333" d="M 286.5 401 L 290.5 406 L 286.5 401 Z " /><path fill="rgb(0,0,0)" stroke="rgb(0,0,0)" stroke-width="1" opacity="0.5333333333333333" d="M 131.5 404 L 132 406.5 L 131 406.5 L 131.5 404 Z " /><path fill="rgb(0,0,0)" stroke="rgb(0,0,0)" stroke-width="1" opacity="0.5333333333333333" d="M 80.5 406 L 81 417.5 L 80 417.5 L 80.5 406 Z " /><path fill="rgb(0,0,0)" stroke="rgb(0,0,0)" stroke-width="1" opacity="0.5333333333333333" d="M 315.5 407 L 316 410.5 L 315 410.5 L 315.5 407 Z " /><path fill="rgb(0,0,0)" stroke="rgb(0,0,0)" stroke-width="1" opacity="0.5333333333333333" d="M 484.5 407 L 485 410.5 L 484 410.5 L 484.5 407 Z " /><path fill="rgb(0,0,0)" stroke="rgb(0,0,0)" stroke-width="1" opacity="0.5333333333333333" d="M 131.5 410 L 132 412.5 L 131 412.5 L 131.5 410 Z " /><path fill="rgb(0,0,0)" stroke="rgb(0,0,0)" stroke-width="1" opacity="0.5333333333333333" d="M 292.5 411 L 293 413.5 L 292 413.5 L 292.5 411 Z " /><path fill="rgb(0,0,0)" stroke="rgb(0,0,0)" stroke-width="1" opacity="0.5333333333333333" d="M 316.5 414 L 317 417.5 L 316 417.5 L 316.5 414 Z " /><path fill="rgb(0,0,0)" stroke="rgb(0,0,0)" stroke-width="1" opacity="0.5333333333333333" d="M 483.5 414 L 484 417.5 L 483 417.5 L 483.5 414 Z " /><path fill="rgb(0,0,0)" stroke="rgb(0,0,0)" stroke-width="1" opacity="0.5333333333333333" d="M 317.5 421 L 318 424.5 L 317 424.5 L 317.5 421 Z " /><path fill="rgb(0,0,0)" stroke="rgb(0,0,0)" stroke-width="1" opacity="0.5333333333333333" d="M 482.5 421 L 483 424.5 L 482 424.5 L 482.5 421 Z " /><path fill="rgb(0,0,0)" stroke="rgb(0,0,0)" stroke-width="1" opacity="0.5333333333333333" d="M 234.5 425 L 236 427.5 L 234 426.5 L 234.5 425 Z " /><path fill="rgb(0,0,0)" stroke="rgb(0,0,0)" stroke-width="1" opacity="0.5333333333333333" d="M 84.5 428 L 85.5 430 L 84.5 428 Z " /><path fill="rgb(0,0,0)" stroke="rgb(0,0,0)" stroke-width="1" opacity="0.5333333333333333" d="M 276.5 430 L 275.5 432 L 276.5 430 Z " /><path fill="rgb(0,0,0)" stroke="rgb(0,0,0)" stroke-width="1" opacity="0.5333333333333333" d="M 88.5 432 L 89.5 434 L 88.5 432 Z " /><path fill="rgb(0,0,0)" stroke="rgb(0,0,0)" stroke-width="1" opacity="0.5333333333333333" d="M 118.5 433 L 117.5 435 L 118.5 433 Z " /><path fill="rgb(0,0,0)" stroke="rgb(0,0,0)" stroke-width="1" opacity="0.5333333333333333" d="M 270.5 434 L 269.5 436 L 270.5 434 Z " /><path fill="rgb(0,0,0)" stroke="rgb(0,0,0)" stroke-width="1" opacity="0.5333333333333333" d="M 99.5 437 L 107 437.5 L 99.5 438 L 99.5 437 Z " /><path fill="rgb(0,0,0)" stroke="rgb(0,0,0)" stroke-width="1" opacity="0.5333333333333333" d="M 245.5 437 L 246.5 439 L 245.5 437 Z " /><path fill="rgb(0,0,0)" stroke="rgb(0,0,0)" stroke-width="1" opacity="0.5333333333333333" d="M 323.5 439 L 326.5 443 L 323.5 439 Z " /><path fill="rgb(0,0,0)" stroke="rgb(0,0,0)" stroke-width="1" opacity="0.5333333333333333" d="M 476.5 439 L 473.5 443 L 476.5 439 Z " /><path fill="rgb(0,0,0)" stroke="rgb(0,0,0)" stroke-width="1" opacity="0.5333333333333333" d="M 251.5 440 L 256 440.5 L 251.5 441 L 251.5 440 Z " /><path fill="rgb(0,0,0)" stroke="rgb(0,0,0)" stroke-width="1" opacity="0.5333333333333333" d="M 336.5 447 L 339 447.5 L 336.5 448 L 336.5 447 Z " /><path fill="rgb(0,0,0)" stroke="rgb(0,0,0)" stroke-width="1" opacity="0.5333333333333333" d="M 461.5 447 L 464 447.5 L 461.5 448 L 461.5 447 Z " /><path fill="rgb(0,0,0)" stroke="rgb(0,0,0)" stroke-width="1" opacity="0" d="M 0 0 L 512 0 L 512 512 L 0 512 L 0 0 Z M 273 43 L 258 49 L 235 64 L 210 70 L 198 74 L 189 79 L 181 87 L 169 108 Q 154 121 143 139 Q 132 152 114 159 L 98 163 L 76 163 Q 74 165 70 164 L 59 167 L 49 173 L 37 189 L 21 206 L 15 220 Q 13 237 20 246 Q 27 254 37 259 L 61 271 L 72 275 Q 77 274 79 276 L 89 275 L 99 272 L 108 268 L 128 255 L 139 251 L 154 248 L 170 248 L 191 254 L 219 256 L 206 267 L 194 273 L 172 279 L 157 287 L 147 298 L 143 310 L 132 329 L 128 342 Q 127 358 134 367 Q 139 374 149 378 L 162 382 L 192 388 L 199 388 L 208 386 Q 219 382 228 374 L 236 365 L 254 349 L 268 342 L 288 337 L 305 338 L 309 363 L 309 369 L 310 370 L 310 376 L 311 377 L 311 383 L 312 384 L 312 390 L 313 391 L 313 397 L 314 398 L 314 404 L 315 405 L 315 411 L 316 412 L 316 418 L 317 419 L 317 425 L 319 433 L 323 440 Q 328 445 337 448 L 464 448 L 474 443 Q 479 438 482 430 L 490 370 L 491 369 L 491 363 L 492 362 L 492 356 L 493 355 L 493 349 L 494 348 L 494 342 L 495 341 L 495 335 L 496 334 L 496 324 L 491 314 Q 480 301 462 297 L 462 295 Q 469 288 472 279 L 475 270 L 475 265 L 478 252 L 491 226 L 495 212 L 495 200 L 496 199 L 496 177 L 495 176 L 494 164 Q 491 149 483 139 Q 476 130 467 125 Q 448 119 434 109 L 427 107 L 420 107 L 412 109 L 412 107 L 405 95 L 371 64 L 361 59 Q 350 58 344 61 Q 335 62 331 60 Q 313 50 293 44 L 288 43 L 273 43 Z M 60 92 L 55 94 L 48 102 Q 47 114 53 119 L 50 127 Q 49 134 52 137 L 61 142 L 68 144 L 81 144 L 94 139 Q 101 134 104 125 Q 106 111 100 105 Q 94 98 85 96 L 71 94 L 66 92 L 60 92 Z M 69 296 L 58 298 L 46 303 L 40 311 L 40 319 L 46 329 L 43 336 Q 42 343 44 347 L 52 352 L 65 352 L 66 351 L 79 350 L 92 346 L 98 342 L 104 333 L 103 320 L 97 307 L 87 297 L 84 296 L 69 296 Z M 260 385 L 247 391 Q 237 398 233 412 L 233 424 L 239 434 L 252 441 Q 260 441 266 438 L 285 426 Q 291 422 293 414 L 291 406 Q 286 398 276 398 L 273 391 Q 271 383 260 385 Z M 93 388 L 88 390 L 82 398 L 80 407 L 80 418 L 84 429 Q 89 436 100 438 L 113 437 L 118 435 L 124 429 L 132 413 Q 133 404 130 401 Q 128 395 122 394 Q 114 393 110 396 L 106 395 L 98 389 L 93 388 Z " /><path fill="rgb(233,146,40)" stroke="rgb(233,146,40)" stroke-width="1" opacity="1" d="M 276.5 59 L 282.5 59 L 297.5 63 L 332.5 78 L 342.5 78 L 355.5 75 L 360.5 77 L 391 103.5 L 397 115 L 367.5 110 L 350.5 109 L 349.5 110 L 338.5 111 L 329.5 115 L 310 133.5 L 302.5 142 L 275.5 157 L 260 169.5 L 255 178.5 L 251 195 L 245.5 194 L 235.5 188 L 223.5 187 Q 210.8 190.3 204 199.5 L 203 204.5 L 207.5 211 L 213.5 212 L 224.5 204 L 230.5 204 Q 235.5 209.1 243 210 L 243 212.5 L 236 224.5 Q 234.5 234 229.5 240 L 214.5 239 L 213.5 238 L 195.5 238 L 174.5 232 L 159.5 231 L 158.5 232 L 148.5 232 L 130.5 236 L 113.5 244 L 94.5 256 L 84.5 259 L 75.5 259 L 43.5 244 L 33 235.5 L 31 228.5 L 31 223.5 L 37 211.5 L 50 198.5 L 61.5 184 L 73.5 180 L 102.5 179 L 120.5 174 Q 143.2 165.2 157 147.5 L 164 136.5 L 182 117.5 Q 188.5 103 198.5 92 L 210.5 87 L 241.5 79 L 264.5 64 L 276.5 59 Z M 307 82 L 296 84 L 286 90 L 278 105 Q 279 107 277 106 Q 272 108 273 117 L 281 122 L 287 120 Q 294 114 297 104 L 304 99 L 325 98 Q 331 96 329 87 L 325 82 L 307 82 Z M 221 114 L 214 120 Q 202 121 195 125 L 191 130 Q 190 136 193 138 L 197 140 L 203 140 L 206 138 L 216 137 L 227 131 L 231 126 L 230 118 Q 228 113 221 114 Z M 154 180 L 142 186 L 136 194 L 130 198 L 126 203 L 127 210 L 132 213 Q 139 214 142 211 L 150 202 Q 153 195 164 196 L 168 192 L 167 184 Q 164 178 154 180 Z M 74 203 L 66 205 L 59 209 L 50 220 Q 49 226 52 228 L 57 230 L 63 229 L 73 220 L 81 219 L 84 215 L 83 208 L 80 204 L 74 203 Z " /><path fill="rgb(233,146,40)" stroke="rgb(233,146,40)" stroke-width="1" opacity="1" d="M 67.5 110 L 80.5 112 L 87 115.5 L 88 120.5 L 84.5 125 L 80.5 127 L 71.5 128 L 68 127 Q 69.8 122.1 69 113.5 L 67.5 110 Z " /><path fill="rgb(233,146,40)" stroke="rgb(233,146,40)" stroke-width="1" opacity="1" d="M 396.5 131 L 402 131.5 L 396.5 132 L 396.5 131 Z " /><path fill="rgb(233,146,40)" stroke="rgb(233,146,40)" stroke-width="1" opacity="1" d="M 326.5 140 L 324.5 143 L 326.5 140 Z " /><path fill="rgb(233,146,40)" stroke="rgb(233,146,40)" stroke-width="1" opacity="1" d="M 394.5 153 L 391.5 157 L 394.5 153 Z " /><path fill="rgb(233,146,40)" stroke="rgb(233,146,40)" stroke-width="1" opacity="1" d="M 383.5 161 L 382.5 163 L 383.5 161 Z " /><path fill="rgb(233,146,40)" stroke="rgb(233,146,40)" stroke-width="1" opacity="1" d="M 399.5 171 L 398.5 173 L 399.5 171 Z " /><path fill="rgb(233,146,40)" stroke="rgb(233,146,40)" stroke-width="1" opacity="1" d="M 275.5 177 L 273.5 180 L 275.5 177 Z " /><path fill="rgb(233,146,40)" stroke="rgb(233,146,40)" stroke-width="1" opacity="1" d="M 333.5 192 L 334.5 194 L 333.5 192 Z " /><path fill="rgb(233,146,40)" stroke="rgb(233,146,40)" stroke-width="1" opacity="1" d="M 333.5 205 L 332.5 207 L 333.5 205 Z " /><path fill="rgb(233,146,40)" stroke="rgb(233,146,40)" stroke-width="1" opacity="1" d="M 435.5 243 L 436 245.5 L 435 245.5 L 435.5 243 Z " /><path fill="rgb(233,146,40)" stroke="rgb(233,146,40)" stroke-width="1" opacity="1" d="M 301.5 245 L 303.5 248 L 301.5 245 Z " /><path fill="rgb(233,146,40)" stroke="rgb(233,146,40)" stroke-width="1" opacity="1" d="M 314.5 246 L 313.5 248 L 314.5 246 Z " /><path fill="rgb(233,146,40)" stroke="rgb(233,146,40)" stroke-width="1" opacity="1" d="M 387.5 277 L 388.5 279 L 387.5 277 Z " /><path fill="rgb(233,146,40)" stroke="rgb(233,146,40)" stroke-width="1" opacity="1" d="M 269.5 303 L 268.5 305 L 269.5 303 Z " /><path fill="rgb(233,146,40)" stroke="rgb(233,146,40)" stroke-width="1" opacity="1" d="M 266.5 306 L 265.5 308 L 266.5 306 Z " /><path fill="rgb(233,146,40)" stroke="rgb(233,146,40)" stroke-width="1" opacity="1" d="M 74.5 312 L 79.5 312 L 84 316.5 L 88 327.5 Q 85.1 332.1 78.5 333 L 61.5 335 L 62 333.5 L 63 325.5 L 58 317.5 L 58 315 L 74.5 312 Z " /><path fill="rgb(233,146,40)" stroke="rgb(233,146,40)" stroke-width="1" opacity="1" d="M 237.5 340 L 236.5 342 L 237.5 340 Z " /><path fill="rgb(233,146,40)" stroke="rgb(233,146,40)" stroke-width="1" opacity="1" d="M 221.5 356 L 217.5 361 L 221.5 356 Z " /><path fill="rgb(24,15,7)" stroke="rgb(24,15,7)" stroke-width="1" opacity="1" d="M 336.5 77 L 339 77.5 L 336.5 78 L 336.5 77 Z " /><path fill="rgb(24,15,7)" stroke="rgb(24,15,7)" stroke-width="1" opacity="1" d="M 361.5 77 L 366.5 83 L 361.5 77 Z " /><path fill="rgb(24,15,7)" stroke="rgb(24,15,7)" stroke-width="1" opacity="1" d="M 316.5 82 L 323 82.5 L 316.5 83 L 316.5 82 Z " /><path fill="rgb(24,15,7)" stroke="rgb(24,15,7)" stroke-width="1" opacity="1" d="M 325.5 83 L 327.5 86 L 325.5 83 Z " /><path fill="rgb(24,15,7)" stroke="rgb(24,15,7)" stroke-width="1" opacity="1" d="M 370.5 85 L 371.5 87 L 370.5 85 Z " /><path fill="rgb(24,15,7)" stroke="rgb(24,15,7)" stroke-width="1" opacity="1" d="M 289.5 88 L 284.5 94 L 289.5 88 Z " /><path fill="rgb(24,15,7)" stroke="rgb(24,15,7)" stroke-width="1" opacity="1" d="M 375.5 89 L 376.5 91 L 375.5 89 Z " /><path fill="rgb(24,15,7)" stroke="rgb(24,15,7)" stroke-width="1" opacity="1" d="M 198.5 91 L 197.5 93 L 198.5 91 Z " /><path fill="rgb(24,15,7)" stroke="rgb(24,15,7)" stroke-width="1" opacity="1" d="M 380.5 93 L 381.5 95 L 380.5 93 Z " /><path fill="rgb(24,15,7)" stroke="rgb(24,15,7)" stroke-width="1" opacity="1" d="M 195.5 94 L 194.5 96 L 195.5 94 Z " /><path fill="rgb(24,15,7)" stroke="rgb(24,15,7)" stroke-width="1" opacity="1" d="M 327.5 94 L 325.5 97 L 327.5 94 Z " /><path fill="rgb(24,15,7)" stroke="rgb(24,15,7)" stroke-width="1" opacity="1" d="M 385.5 97 L 391.5 104 L 385.5 97 Z " /><path fill="rgb(24,15,7)" stroke="rgb(24,15,7)" stroke-width="1" opacity="1" d="M 304.5 98 L 309 98.5 L 304.5 99 L 304.5 98 Z " /><path fill="rgb(24,15,7)" stroke="rgb(24,15,7)" stroke-width="1" opacity="1" d="M 278.5 105 L 277.5 107 L 278.5 105 Z " /><path fill="rgb(24,15,7)" stroke="rgb(24,15,7)" stroke-width="1" opacity="1" d="M 273.5 112 L 274 114.5 L 273 114.5 L 273.5 112 Z " /><path fill="rgb(24,15,7)" stroke="rgb(24,15,7)" stroke-width="1" opacity="1" d="M 397.5 114 L 396.5 116 L 397.5 114 Z " /><path fill="rgb(24,15,7)" stroke="rgb(24,15,7)" stroke-width="1" opacity="1" d="M 275.5 118 L 276.5 120 L 275.5 118 Z " /><path fill="rgb(24,15,7)" stroke="rgb(24,15,7)" stroke-width="1" opacity="1" d="M 179.5 119 L 173.5 126 L 179.5 119 Z " /><path fill="rgb(24,15,7)" stroke="rgb(24,15,7)" stroke-width="1" opacity="1" d="M 324.5 119 L 316.5 128 L 324.5 119 Z " /><path fill="rgb(24,15,7)" stroke="rgb(24,15,7)" stroke-width="1" opacity="1" d="M 349.5 125 L 352 125.5 L 349.5 126 L 349.5 125 Z " /><path fill="rgb(24,15,7)" stroke="rgb(24,15,7)" stroke-width="1" opacity="1" d="M 355.5 125 L 359 125.5 L 355.5 126 L 355.5 125 Z " /><path fill="rgb(24,15,7)" stroke="rgb(24,15,7)" stroke-width="1" opacity="1" d="M 229.5 126 L 228.5 128 L 229.5 126 Z " /><path fill="rgb(24,15,7)" stroke="rgb(24,15,7)" stroke-width="1" opacity="1" d="M 165.5 134 L 163.5 137 L 165.5 134 Z " /><path fill="rgb(24,15,7)" stroke="rgb(24,15,7)" stroke-width="1" opacity="1" d="M 310.5 134 L 302.5 143 L 310.5 134 Z " /><path fill="rgb(24,15,7)" stroke="rgb(24,15,7)" stroke-width="1" opacity="1" d="M 327.5 138 L 324.5 142 L 327.5 138 Z " /><path fill="rgb(24,15,7)" stroke="rgb(24,15,7)" stroke-width="1" opacity="1" d="M 198.5 139 L 201 139.5 L 198.5 140 L 198.5 139 Z " /><path fill="rgb(24,15,7)" stroke="rgb(24,15,7)" stroke-width="1" opacity="1" d="M 465.5 143 L 469.5 148 L 465.5 143 Z " /><path fill="rgb(24,15,7)" stroke="rgb(24,15,7)" stroke-width="1" opacity="1" d="M 157.5 145 L 156.5 147 L 157.5 145 Z " /><path fill="rgb(24,15,7)" stroke="rgb(24,15,7)" stroke-width="1" opacity="1" d="M 414.5 146 L 417 146.5 L 414.5 147 L 414.5 146 Z " /><path fill="rgb(24,15,7)" stroke="rgb(24,15,7)" stroke-width="1" opacity="1" d="M 317.5 149 L 316.5 151 L 317.5 149 Z " /><path fill="rgb(24,15,7)" stroke="rgb(24,15,7)" stroke-width="1" opacity="1" d="M 153.5 150 L 147.5 157 L 153.5 150 Z " /><path fill="rgb(24,15,7)" stroke="rgb(24,15,7)" stroke-width="1" opacity="1" d="M 392.5 156 L 390.5 159 L 392.5 156 Z " /><path fill="rgb(24,15,7)" stroke="rgb(24,15,7)" stroke-width="1" opacity="1" d="M 142.5 160 L 141.5 162 L 142.5 160 Z " /><path fill="rgb(24,15,7)" stroke="rgb(24,15,7)" stroke-width="1" opacity="1" d="M 384.5 161 L 382.5 164 L 384.5 161 Z " /><path fill="rgb(24,15,7)" stroke="rgb(24,15,7)" stroke-width="1" opacity="1" d="M 440.5 164 L 439.5 166 L 440.5 164 Z " /><path fill="rgb(24,15,7)" stroke="rgb(24,15,7)" stroke-width="1" opacity="1" d="M 275.5 176 L 273.5 179 L 275.5 176 Z " /><path fill="rgb(24,15,7)" stroke="rgb(24,15,7)" stroke-width="1" opacity="1" d="M 96.5 178 L 99 178.5 L 96.5 179 L 96.5 178 Z " /><path fill="rgb(24,15,7)" stroke="rgb(24,15,7)" stroke-width="1" opacity="1" d="M 155.5 180 L 162 180.5 L 155.5 181 L 155.5 180 Z " /><path fill="rgb(24,15,7)" stroke="rgb(24,15,7)" stroke-width="1" opacity="1" d="M 327.5 191 L 330 191.5 L 327.5 192 L 327.5 191 Z " /><path fill="rgb(24,15,7)" stroke="rgb(24,15,7)" stroke-width="1" opacity="1" d="M 332.5 192 L 334.5 195 L 332.5 192 Z " /><path fill="rgb(24,15,7)" stroke="rgb(24,15,7)" stroke-width="1" opacity="1" d="M 136.5 193 L 135.5 195 L 136.5 193 Z " /><path fill="rgb(24,15,7)" stroke="rgb(24,15,7)" stroke-width="1" opacity="1" d="M 133.5 196 L 132.5 198 L 133.5 196 Z " /><path fill="rgb(24,15,7)" stroke="rgb(24,15,7)" stroke-width="1" opacity="1" d="M 479.5 198 L 480 201.5 L 479 201.5 L 479.5 198 Z " /><path fill="rgb(24,15,7)" stroke="rgb(24,15,7)" stroke-width="1" opacity="1" d="M 147.5 204 L 143.5 209 L 147.5 204 Z " /><path fill="rgb(24,15,7)" stroke="rgb(24,15,7)" stroke-width="1" opacity="1" d="M 80.5 205 L 81.5 207 L 80.5 205 Z " /><path fill="rgb(24,15,7)" stroke="rgb(24,15,7)" stroke-width="1" opacity="1" d="M 332.5 205 L 331.5 207 L 332.5 205 Z " /><path fill="rgb(24,15,7)" stroke="rgb(24,15,7)" stroke-width="1" opacity="1" d="M 219.5 206 L 216.5 210 L 219.5 206 Z " /><path fill="rgb(24,15,7)" stroke="rgb(24,15,7)" stroke-width="1" opacity="1" d="M 60.5 208 L 59.5 210 L 60.5 208 Z " /><path fill="rgb(24,15,7)" stroke="rgb(24,15,7)" stroke-width="1" opacity="1" d="M 328.5 208 L 327.5 210 L 328.5 208 Z " /><path fill="rgb(24,15,7)" stroke="rgb(24,15,7)" stroke-width="1" opacity="1" d="M 38.5 209 L 36.5 212 L 38.5 209 Z " /><path fill="rgb(24,15,7)" stroke="rgb(24,15,7)" stroke-width="1" opacity="1" d="M 83.5 210 L 84 212.5 L 83 212.5 L 83.5 210 Z " /><path fill="rgb(24,15,7)" stroke="rgb(24,15,7)" stroke-width="1" opacity="1" d="M 53.5 215 L 52.5 217 L 53.5 215 Z " /><path fill="rgb(24,15,7)" stroke="rgb(24,15,7)" stroke-width="1" opacity="1" d="M 319.5 215 L 317.5 218 L 319.5 215 Z " /><path fill="rgb(24,15,7)" stroke="rgb(24,15,7)" stroke-width="1" opacity="1" d="M 73.5 219 L 77 219.5 L 73.5 220 L 73.5 219 Z " /><path fill="rgb(24,15,7)" stroke="rgb(24,15,7)" stroke-width="1" opacity="1" d="M 315.5 222 L 316 224.5 L 315 224.5 L 315.5 222 Z " /><path fill="rgb(24,15,7)" stroke="rgb(24,15,7)" stroke-width="1" opacity="1" d="M 51.5 225 L 53.5 228 L 51.5 225 Z " /><path fill="rgb(24,15,7)" stroke="rgb(24,15,7)" stroke-width="1" opacity="1" d="M 196.5 238 L 200 238.5 L 196.5 239 L 196.5 238 Z " /><path fill="rgb(24,15,7)" stroke="rgb(24,15,7)" stroke-width="1" opacity="1" d="M 422.5 238 L 421.5 240 L 422.5 238 Z " /><path fill="rgb(24,15,7)" stroke="rgb(24,15,7)" stroke-width="1" opacity="1" d="M 36.5 239 L 37.5 241 L 36.5 239 Z " /><path fill="rgb(24,15,7)" stroke="rgb(24,15,7)" stroke-width="1" opacity="1" d="M 218.5 239 L 221 239.5 L 218.5 240 L 218.5 239 Z " /><path fill="rgb(24,15,7)" stroke="rgb(24,15,7)" stroke-width="1" opacity="1" d="M 419.5 241 L 418.5 243 L 419.5 241 Z " /><path fill="rgb(24,15,7)" stroke="rgb(24,15,7)" stroke-width="1" opacity="1" d="M 314.5 245 L 312.5 248 L 314.5 245 Z " /><path fill="rgb(24,15,7)" stroke="rgb(24,15,7)" stroke-width="1" opacity="1" d="M 307.5 248 L 310 248.5 L 307.5 249 L 307.5 248 Z " /><path fill="rgb(24,15,7)" stroke="rgb(24,15,7)" stroke-width="1" opacity="1" d="M 395.5 250 L 392.5 254 L 395.5 250 Z " /><path fill="rgb(24,15,7)" stroke="rgb(24,15,7)" stroke-width="1" opacity="1" d="M 432.5 250 L 430.5 253 L 432.5 250 Z " /><path fill="rgb(24,15,7)" stroke="rgb(24,15,7)" stroke-width="1" opacity="1" d="M 80.5 259 L 83 259.5 L 80.5 260 L 80.5 259 Z " /><path fill="rgb(24,15,7)" stroke="rgb(24,15,7)" stroke-width="1" opacity="1" d="M 406.5 261 L 405.5 263 L 406.5 261 Z " /><path fill="rgb(24,15,7)" stroke="rgb(24,15,7)" stroke-width="1" opacity="1" d="M 231.5 265 L 226.5 271 L 231.5 265 Z " /><path fill="rgb(24,15,7)" stroke="rgb(24,15,7)" stroke-width="1" opacity="1" d="M 221.5 274 L 220.5 276 L 221.5 274 Z " /><path fill="rgb(24,15,7)" stroke="rgb(24,15,7)" stroke-width="1" opacity="1" d="M 387.5 276 L 389.5 279 L 387.5 276 Z " /><path fill="rgb(24,15,7)" stroke="rgb(24,15,7)" stroke-width="1" opacity="1" d="M 392.5 279 L 395 279.5 L 392.5 280 L 392.5 279 Z " /><path fill="rgb(24,15,7)" stroke="rgb(24,15,7)" stroke-width="1" opacity="1" d="M 449.5 285 L 447.5 288 L 449.5 285 Z " /><path fill="rgb(24,15,7)" stroke="rgb(24,15,7)" stroke-width="1" opacity="1" d="M 390.5 288 L 398 288.5 L 390.5 289 L 390.5 288 Z " /><path fill="rgb(24,15,7)" stroke="rgb(24,15,7)" stroke-width="1" opacity="1" d="M 401.5 288 L 411 288.5 L 401.5 289 L 401.5 288 Z " /><path fill="rgb(24,15,7)" stroke="rgb(24,15,7)" stroke-width="1" opacity="1" d="M 375.5 289 L 378 289.5 L 375.5 290 L 375.5 289 Z " /><path fill="rgb(24,15,7)" stroke="rgb(24,15,7)" stroke-width="1" opacity="1" d="M 269.5 302 L 268.5 304 L 269.5 302 Z " /><path fill="rgb(24,15,7)" stroke="rgb(24,15,7)" stroke-width="1" opacity="1" d="M 315.5 308 L 314.5 310 L 315.5 308 Z " /><path fill="rgb(24,15,7)" stroke="rgb(24,15,7)" stroke-width="1" opacity="1" d="M 390.5 312 L 399 312.5 L 390.5 313 L 390.5 312 Z " /><path fill="rgb(24,15,7)" stroke="rgb(24,15,7)" stroke-width="1" opacity="1" d="M 401.5 312 L 410 312.5 L 401.5 313 L 401.5 312 Z " /><path fill="rgb(24,15,7)" stroke="rgb(24,15,7)" stroke-width="1" opacity="1" d="M 309.5 314 L 308.5 316 L 309.5 314 Z " /><path fill="rgb(24,15,7)" stroke="rgb(24,15,7)" stroke-width="1" opacity="1" d="M 238.5 315 L 241 315.5 L 238.5 316 L 238.5 315 Z " /><path fill="rgb(24,15,7)" stroke="rgb(24,15,7)" stroke-width="1" opacity="1" d="M 287.5 321 L 296 321.5 L 287.5 322 L 287.5 321 Z " /><path fill="rgb(24,15,7)" stroke="rgb(24,15,7)" stroke-width="1" opacity="1" d="M 323.5 321 L 321.5 324 L 323.5 321 Z " /><path fill="rgb(24,15,7)" stroke="rgb(24,15,7)" stroke-width="1" opacity="1" d="M 476.5 321 L 478.5 324 L 476.5 321 Z " /><path fill="rgb(24,15,7)" stroke="rgb(24,15,7)" stroke-width="1" opacity="1" d="M 167.5 324 L 166.5 326 L 167.5 324 Z " /><path fill="rgb(24,15,7)" stroke="rgb(24,15,7)" stroke-width="1" opacity="1" d="M 379.5 328 L 384 328.5 L 379.5 329 L 379.5 328 Z " /><path fill="rgb(24,15,7)" stroke="rgb(24,15,7)" stroke-width="1" opacity="1" d="M 416.5 328 L 421 328.5 L 416.5 329 L 416.5 328 Z " /><path fill="rgb(24,15,7)" stroke="rgb(24,15,7)" stroke-width="1" opacity="1" d="M 370.5 329 L 373 329.5 L 370.5 330 L 370.5 329 Z " /><path fill="rgb(24,15,7)" stroke="rgb(24,15,7)" stroke-width="1" opacity="1" d="M 427.5 329 L 430 329.5 L 427.5 330 L 427.5 329 Z " /><path fill="rgb(24,15,7)" stroke="rgb(24,15,7)" stroke-width="1" opacity="1" d="M 182.5 332 L 181.5 334 L 182.5 332 Z " /><path fill="rgb(24,15,7)" stroke="rgb(24,15,7)" stroke-width="1" opacity="1" d="M 63.5 335 L 66 335.5 L 63.5 336 L 63.5 335 Z " /><path fill="rgb(24,15,7)" stroke="rgb(24,15,7)" stroke-width="1" opacity="1" d="M 178.5 335 L 176.5 338 L 178.5 335 Z " /><path fill="rgb(24,15,7)" stroke="rgb(24,15,7)" stroke-width="1" opacity="1" d="M 238.5 340 L 237.5 342 L 238.5 340 Z " /><path fill="rgb(24,15,7)" stroke="rgb(24,15,7)" stroke-width="1" opacity="1" d="M 231.5 346 L 227.5 351 L 231.5 346 Z " /><path fill="rgb(24,15,7)" stroke="rgb(24,15,7)" stroke-width="1" opacity="1" d="M 379.5 351 L 384 351.5 L 379.5 352 L 379.5 351 Z " /><path fill="rgb(24,15,7)" stroke="rgb(24,15,7)" stroke-width="1" opacity="1" d="M 416.5 351 L 421 351.5 L 416.5 352 L 416.5 351 Z " /><path fill="rgb(24,15,7)" stroke="rgb(24,15,7)" stroke-width="1" opacity="1" d="M 221.5 357 L 218.5 361 L 221.5 357 Z " /><path fill="rgb(24,15,7)" stroke="rgb(24,15,7)" stroke-width="1" opacity="1" d="M 392.5 367 L 399 367.5 L 392.5 368 L 392.5 367 Z " /><path fill="rgb(24,15,7)" stroke="rgb(24,15,7)" stroke-width="1" opacity="1" d="M 401.5 367 L 408 367.5 L 401.5 368 L 401.5 367 Z " /><path fill="rgb(24,15,7)" stroke="rgb(24,15,7)" stroke-width="1" opacity="1" d="M 398.5 384 L 402 384.5 L 398.5 385 L 398.5 384 Z " /><path fill="rgb(24,15,7)" stroke="rgb(24,15,7)" stroke-width="1" opacity="1" d="M 352.5 390 L 353 393.5 L 352 393.5 L 352.5 390 Z " /><path fill="rgb(24,15,7)" stroke="rgb(24,15,7)" stroke-width="1" opacity="1" d="M 447.5 390 L 448 393.5 L 447 393.5 L 447.5 390 Z " /><path fill="rgb(24,15,7)" stroke="rgb(24,15,7)" stroke-width="1" opacity="1" d="M 256.5 403 L 252.5 408 L 256.5 403 Z " /><path fill="rgb(24,15,7)" stroke="rgb(24,15,7)" stroke-width="1" opacity="1" d="M 264.5 408 L 266.5 411 L 264.5 408 Z " /><path fill="rgb(24,15,7)" stroke="rgb(24,15,7)" stroke-width="1" opacity="1" d="M 273.5 413 L 272.5 415 L 273.5 413 Z " /><path fill="rgb(24,15,7)" stroke="rgb(24,15,7)" stroke-width="1" opacity="1" d="M 248.5 416 L 249 418.5 L 248 418.5 L 248.5 416 Z " /><path fill="rgb(24,15,7)" stroke="rgb(24,15,7)" stroke-width="1" opacity="1" d="M 97.5 419 L 98.5 421 L 97.5 419 Z " /><path fill="rgb(24,15,7)" stroke="rgb(24,15,7)" stroke-width="1" opacity="1" d="M 335.5 429 L 336.5 431 L 335.5 429 Z " /><path fill="rgb(24,15,7)" stroke="rgb(24,15,7)" stroke-width="1" opacity="1" d="M 464.5 429 L 463.5 431 L 464.5 429 Z " /><path fill="rgb(99,64,33)" stroke="rgb(99,64,33)" stroke-width="1" opacity="1" d="M 257.5 68 L 256.5 70 L 257.5 68 Z " /><path fill="rgb(99,64,33)" stroke="rgb(99,64,33)" stroke-width="1" opacity="1" d="M 254.5 70 L 253.5 72 L 254.5 70 Z " /><path fill="rgb(99,64,33)" stroke="rgb(99,64,33)" stroke-width="1" opacity="1" d="M 333.5 77 L 336 77.5 L 333.5 78 L 333.5 77 Z " /><path fill="rgb(99,64,33)" stroke="rgb(99,64,33)" stroke-width="1" opacity="1" d="M 339.5 77 L 342 77.5 L 339.5 78 L 339.5 77 Z " /><path fill="rgb(99,64,33)" stroke="rgb(99,64,33)" stroke-width="1" opacity="1" d="M 308.5 82 L 316 82.5 L 308.5 83 L 308.5 82 Z " /><path fill="rgb(99,64,33)" stroke="rgb(99,64,33)" stroke-width="1" opacity="1" d="M 367.5 83 L 368.5 85 L 367.5 83 Z " /><path fill="rgb(99,64,33)" stroke="rgb(99,64,33)" stroke-width="1" opacity="1" d="M 372.5 87 L 373.5 89 L 372.5 87 Z " /><path fill="rgb(99,64,33)" stroke="rgb(99,64,33)" stroke-width="1" opacity="1" d="M 377.5 91 L 378.5 93 L 377.5 91 Z " /><path fill="rgb(99,64,33)" stroke="rgb(99,64,33)" stroke-width="1" opacity="1" d="M 382.5 95 L 383.5 97 L 382.5 95 Z " /><path fill="rgb(99,64,33)" stroke="rgb(99,64,33)" stroke-width="1" opacity="1" d="M 309.5 98 L 317 98.5 L 309.5 99 L 309.5 98 Z " /><path fill="rgb(99,64,33)" stroke="rgb(99,64,33)" stroke-width="1" opacity="1" d="M 298.5 101 L 297.5 103 L 298.5 101 Z " /><path fill="rgb(99,64,33)" stroke="rgb(99,64,33)" stroke-width="1" opacity="1" d="M 392.5 105 L 393.5 107 L 392.5 105 Z " /><path fill="rgb(99,64,33)" stroke="rgb(99,64,33)" stroke-width="1" opacity="1" d="M 71.5 110 L 74 110.5 L 71.5 111 L 71.5 110 Z " /><path fill="rgb(99,64,33)" stroke="rgb(99,64,33)" stroke-width="1" opacity="1" d="M 342.5 110 L 345 110.5 L 342.5 111 L 342.5 110 Z " /><path fill="rgb(99,64,33)" stroke="rgb(99,64,33)" stroke-width="1" opacity="1" d="M 363.5 110 L 367 110.5 L 363.5 111 L 363.5 110 Z " /><path fill="rgb(99,64,33)" stroke="rgb(99,64,33)" stroke-width="1" opacity="1" d="M 383.5 113 L 386 113.5 L 383.5 114 L 383.5 113 Z " /><path fill="rgb(99,64,33)" stroke="rgb(99,64,33)" stroke-width="1" opacity="1" d="M 86.5 114 L 88 116.5 L 87 116.5 L 86.5 114 Z " /><path fill="rgb(99,64,33)" stroke="rgb(99,64,33)" stroke-width="1" opacity="1" d="M 291.5 114 L 286.5 120 L 291.5 114 Z " /><path fill="rgb(99,64,33)" stroke="rgb(99,64,33)" stroke-width="1" opacity="1" d="M 389.5 114 L 392 114.5 L 389.5 115 L 389.5 114 Z " /><path fill="rgb(99,64,33)" stroke="rgb(99,64,33)" stroke-width="1" opacity="1" d="M 218.5 115 L 214.5 120 L 218.5 115 Z " /><path fill="rgb(99,64,33)" stroke="rgb(99,64,33)" stroke-width="1" opacity="1" d="M 227.5 115 L 229.5 118 L 227.5 115 Z " /><path fill="rgb(99,64,33)" stroke="rgb(99,64,33)" stroke-width="1" opacity="1" d="M 329.5 115 L 328.5 117 L 329.5 115 Z " /><path fill="rgb(99,64,33)" stroke="rgb(99,64,33)" stroke-width="1" opacity="1" d="M 181.5 117 L 180.5 119 L 181.5 117 Z " /><path fill="rgb(99,64,33)" stroke="rgb(99,64,33)" stroke-width="1" opacity="1" d="M 326.5 117 L 325.5 119 L 326.5 117 Z " /><path fill="rgb(99,64,33)" stroke="rgb(99,64,33)" stroke-width="1" opacity="1" d="M 206.5 121 L 209 121.5 L 206.5 122 L 206.5 121 Z " /><path fill="rgb(99,64,33)" stroke="rgb(99,64,33)" stroke-width="1" opacity="1" d="M 86.5 123 L 85.5 125 L 86.5 123 Z " /><path fill="rgb(99,64,33)" stroke="rgb(99,64,33)" stroke-width="1" opacity="1" d="M 194.5 125 L 193.5 127 L 194.5 125 Z " /><path fill="rgb(99,64,33)" stroke="rgb(99,64,33)" stroke-width="1" opacity="1" d="M 352.5 125 L 355 125.5 L 352.5 126 L 352.5 125 Z " /><path fill="rgb(99,64,33)" stroke="rgb(99,64,33)" stroke-width="1" opacity="1" d="M 363.5 126 L 366 126.5 L 363.5 127 L 363.5 126 Z " /><path fill="rgb(99,64,33)" stroke="rgb(99,64,33)" stroke-width="1" opacity="1" d="M 370.5 127 L 373 127.5 L 370.5 128 L 370.5 127 Z " /><path fill="rgb(99,64,33)" stroke="rgb(99,64,33)" stroke-width="1" opacity="1" d="M 315.5 128 L 312.5 132 L 315.5 128 Z " /><path fill="rgb(99,64,33)" stroke="rgb(99,64,33)" stroke-width="1" opacity="1" d="M 376.5 128 L 379 128.5 L 376.5 129 L 376.5 128 Z " /><path fill="rgb(99,64,33)" stroke="rgb(99,64,33)" stroke-width="1" opacity="1" d="M 169.5 130 L 166.5 134 L 169.5 130 Z " /><path fill="rgb(99,64,33)" stroke="rgb(99,64,33)" stroke-width="1" opacity="1" d="M 191.5 130 L 192 133.5 L 191 133.5 L 191.5 130 Z " /><path fill="rgb(99,64,33)" stroke="rgb(99,64,33)" stroke-width="1" opacity="1" d="M 389.5 130 L 392 130.5 L 389.5 131 L 389.5 130 Z " /><path fill="rgb(99,64,33)" stroke="rgb(99,64,33)" stroke-width="1" opacity="1" d="M 334.5 131 L 328.5 138 L 334.5 131 Z " /><path fill="rgb(99,64,33)" stroke="rgb(99,64,33)" stroke-width="1" opacity="1" d="M 163.5 137 L 162.5 139 L 163.5 137 Z " /><path fill="rgb(99,64,33)" stroke="rgb(99,64,33)" stroke-width="1" opacity="1" d="M 207.5 137 L 210 137.5 L 207.5 138 L 207.5 137 Z " /><path fill="rgb(99,64,33)" stroke="rgb(99,64,33)" stroke-width="1" opacity="1" d="M 322.5 144 L 318.5 149 L 322.5 144 Z " /><path fill="rgb(99,64,33)" stroke="rgb(99,64,33)" stroke-width="1" opacity="1" d="M 155.5 148 L 154.5 150 L 155.5 148 Z " /><path fill="rgb(99,64,33)" stroke="rgb(99,64,33)" stroke-width="1" opacity="1" d="M 470.5 149 L 471.5 151 L 470.5 149 Z " /><path fill="rgb(99,64,33)" stroke="rgb(99,64,33)" stroke-width="1" opacity="1" d="M 315.5 151 L 312.5 155 L 315.5 151 Z " /><path fill="rgb(99,64,33)" stroke="rgb(99,64,33)" stroke-width="1" opacity="1" d="M 146.5 157 L 144.5 160 L 146.5 157 Z " /><path fill="rgb(99,64,33)" stroke="rgb(99,64,33)" stroke-width="1" opacity="1" d="M 269.5 161 L 268.5 163 L 269.5 161 Z " /><path fill="rgb(99,64,33)" stroke="rgb(99,64,33)" stroke-width="1" opacity="1" d="M 265.5 164 L 261.5 169 L 265.5 164 Z " /><path fill="rgb(99,64,33)" stroke="rgb(99,64,33)" stroke-width="1" opacity="1" d="M 405.5 165 L 400.5 171 L 405.5 165 Z " /><path fill="rgb(99,64,33)" stroke="rgb(99,64,33)" stroke-width="1" opacity="1" d="M 479.5 176 L 480 181.5 L 479 181.5 L 479.5 176 Z " /><path fill="rgb(99,64,33)" stroke="rgb(99,64,33)" stroke-width="1" opacity="1" d="M 99.5 178 L 102 178.5 L 99.5 179 L 99.5 178 Z " /><path fill="rgb(99,64,33)" stroke="rgb(99,64,33)" stroke-width="1" opacity="1" d="M 77.5 179 L 90 179.5 L 77.5 180 L 77.5 179 Z " /><path fill="rgb(99,64,33)" stroke="rgb(99,64,33)" stroke-width="1" opacity="1" d="M 141.5 186 L 139.5 189 L 141.5 186 Z " /><path fill="rgb(99,64,33)" stroke="rgb(99,64,33)" stroke-width="1" opacity="1" d="M 57.5 187 L 56.5 189 L 57.5 187 Z " /><path fill="rgb(99,64,33)" stroke="rgb(99,64,33)" stroke-width="1" opacity="1" d="M 224.5 187 L 231 187.5 L 224.5 188 L 224.5 187 Z " /><path fill="rgb(99,64,33)" stroke="rgb(99,64,33)" stroke-width="1" opacity="1" d="M 479.5 190 L 480 197.5 L 479 197.5 L 479.5 190 Z " /><path fill="rgb(99,64,33)" stroke="rgb(99,64,33)" stroke-width="1" opacity="1" d="M 137.5 191 L 136.5 193 L 137.5 191 Z " /><path fill="rgb(99,64,33)" stroke="rgb(99,64,33)" stroke-width="1" opacity="1" d="M 322.5 193 L 321.5 195 L 322.5 193 Z " /><path fill="rgb(99,64,33)" stroke="rgb(99,64,33)" stroke-width="1" opacity="1" d="M 52.5 194 L 51.5 196 L 52.5 194 Z " /><path fill="rgb(99,64,33)" stroke="rgb(99,64,33)" stroke-width="1" opacity="1" d="M 209.5 194 L 205.5 199 L 209.5 194 Z " /><path fill="rgb(99,64,33)" stroke="rgb(99,64,33)" stroke-width="1" opacity="1" d="M 318.5 196 L 317.5 198 L 318.5 196 Z " /><path fill="rgb(99,64,33)" stroke="rgb(99,64,33)" stroke-width="1" opacity="1" d="M 153.5 197 L 150.5 201 L 153.5 197 Z " /><path fill="rgb(99,64,33)" stroke="rgb(99,64,33)" stroke-width="1" opacity="1" d="M 129.5 198 L 128.5 200 L 129.5 198 Z " /><path fill="rgb(99,64,33)" stroke="rgb(99,64,33)" stroke-width="1" opacity="1" d="M 48.5 199 L 39.5 209 L 48.5 199 Z " /><path fill="rgb(99,64,33)" stroke="rgb(99,64,33)" stroke-width="1" opacity="1" d="M 314.5 199 L 313.5 201 L 314.5 199 Z " /><path fill="rgb(99,64,33)" stroke="rgb(99,64,33)" stroke-width="1" opacity="1" d="M 310.5 202 L 308.5 205 L 310.5 202 Z " /><path fill="rgb(99,64,33)" stroke="rgb(99,64,33)" stroke-width="1" opacity="1" d="M 126.5 203 L 127 206.5 L 126 206.5 L 126.5 203 Z " /><path fill="rgb(99,64,33)" stroke="rgb(99,64,33)" stroke-width="1" opacity="1" d="M 225.5 203 L 229 203.5 L 225.5 204 L 225.5 203 Z " /><path fill="rgb(99,64,33)" stroke="rgb(99,64,33)" stroke-width="1" opacity="1" d="M 306.5 206 L 305.5 208 L 306.5 206 Z " /><path fill="rgb(99,64,33)" stroke="rgb(99,64,33)" stroke-width="1" opacity="1" d="M 205.5 208 L 206.5 210 L 205.5 208 Z " /><path fill="rgb(99,64,33)" stroke="rgb(99,64,33)" stroke-width="1" opacity="1" d="M 57.5 210 L 55.5 213 L 57.5 210 Z " /><path fill="rgb(99,64,33)" stroke="rgb(99,64,33)" stroke-width="1" opacity="1" d="M 128.5 210 L 129.5 212 L 128.5 210 Z " /><path fill="rgb(99,64,33)" stroke="rgb(99,64,33)" stroke-width="1" opacity="1" d="M 322.5 213 L 321.5 215 L 322.5 213 Z " /><path fill="rgb(99,64,33)" stroke="rgb(99,64,33)" stroke-width="1" opacity="1" d="M 82.5 216 L 80.5 219 L 82.5 216 Z " /><path fill="rgb(99,64,33)" stroke="rgb(99,64,33)" stroke-width="1" opacity="1" d="M 66.5 224 L 62.5 229 L 66.5 224 Z " /><path fill="rgb(99,64,33)" stroke="rgb(99,64,33)" stroke-width="1" opacity="1" d="M 56.5 229 L 60 229.5 L 56.5 230 L 56.5 229 Z " /><path fill="rgb(99,64,33)" stroke="rgb(99,64,33)" stroke-width="1" opacity="1" d="M 149.5 232 L 152 232.5 L 149.5 233 L 149.5 232 Z " /><path fill="rgb(99,64,33)" stroke="rgb(99,64,33)" stroke-width="1" opacity="1" d="M 171.5 232 L 174 232.5 L 171.5 233 L 171.5 232 Z " /><path fill="rgb(99,64,33)" stroke="rgb(99,64,33)" stroke-width="1" opacity="1" d="M 301.5 232 L 302 236.5 L 301 236.5 L 301.5 232 Z " /><path fill="rgb(99,64,33)" stroke="rgb(99,64,33)" stroke-width="1" opacity="1" d="M 317.5 232 L 318 237.5 L 317 237.5 L 317.5 232 Z " /><path fill="rgb(99,64,33)" stroke="rgb(99,64,33)" stroke-width="1" opacity="1" d="M 34.5 237 L 35.5 239 L 34.5 237 Z " /><path fill="rgb(99,64,33)" stroke="rgb(99,64,33)" stroke-width="1" opacity="1" d="M 191.5 237 L 194 237.5 L 191.5 238 L 191.5 237 Z " /><path fill="rgb(99,64,33)" stroke="rgb(99,64,33)" stroke-width="1" opacity="1" d="M 200.5 238 L 212 238.5 L 200.5 239 L 200.5 238 Z " /><path fill="rgb(99,64,33)" stroke="rgb(99,64,33)" stroke-width="1" opacity="1" d="M 221.5 239 L 225 239.5 L 221.5 240 L 221.5 239 Z " /><path fill="rgb(99,64,33)" stroke="rgb(99,64,33)" stroke-width="1" opacity="1" d="M 300.5 239 L 301 242.5 L 300 242.5 L 300.5 239 Z " /><path fill="rgb(99,64,33)" stroke="rgb(99,64,33)" stroke-width="1" opacity="1" d="M 407.5 244 L 410 244.5 L 407.5 245 L 407.5 244 Z " /><path fill="rgb(99,64,33)" stroke="rgb(99,64,33)" stroke-width="1" opacity="1" d="M 429.5 253 L 428.5 255 L 429.5 253 Z " /><path fill="rgb(99,64,33)" stroke="rgb(99,64,33)" stroke-width="1" opacity="1" d="M 238.5 257 L 237.5 259 L 238.5 257 Z " /><path fill="rgb(99,64,33)" stroke="rgb(99,64,33)" stroke-width="1" opacity="1" d="M 234.5 262 L 232.5 265 L 234.5 262 Z " /><path fill="rgb(99,64,33)" stroke="rgb(99,64,33)" stroke-width="1" opacity="1" d="M 225.5 271 L 224.5 273 L 225.5 271 Z " /><path fill="rgb(99,64,33)" stroke="rgb(99,64,33)" stroke-width="1" opacity="1" d="M 216.5 278 L 215.5 280 L 216.5 278 Z " /><path fill="rgb(99,64,33)" stroke="rgb(99,64,33)" stroke-width="1" opacity="1" d="M 383.5 288 L 390 288.5 L 383.5 289 L 383.5 288 Z " /><path fill="rgb(99,64,33)" stroke="rgb(99,64,33)" stroke-width="1" opacity="1" d="M 411.5 288 L 416 288.5 L 411.5 289 L 411.5 288 Z " /><path fill="rgb(99,64,33)" stroke="rgb(99,64,33)" stroke-width="1" opacity="1" d="M 372.5 289 L 375 289.5 L 372.5 290 L 372.5 289 Z " /><path fill="rgb(99,64,33)" stroke="rgb(99,64,33)" stroke-width="1" opacity="1" d="M 424.5 289 L 427 289.5 L 424.5 290 L 424.5 289 Z " /><path fill="rgb(99,64,33)" stroke="rgb(99,64,33)" stroke-width="1" opacity="1" d="M 432.5 290 L 435 290.5 L 432.5 291 L 432.5 290 Z " /><path fill="rgb(99,64,33)" stroke="rgb(99,64,33)" stroke-width="1" opacity="1" d="M 267.5 291 L 269.5 294 L 267.5 291 Z " /><path fill="rgb(99,64,33)" stroke="rgb(99,64,33)" stroke-width="1" opacity="1" d="M 257.5 292 L 254.5 296 L 257.5 292 Z " /><path fill="rgb(99,64,33)" stroke="rgb(99,64,33)" stroke-width="1" opacity="1" d="M 164.5 301 L 163.5 303 L 164.5 301 Z " /><path fill="rgb(99,64,33)" stroke="rgb(99,64,33)" stroke-width="1" opacity="1" d="M 234.5 301 L 233.5 303 L 234.5 301 Z " /><path fill="rgb(99,64,33)" stroke="rgb(99,64,33)" stroke-width="1" opacity="1" d="M 381.5 304 L 388 304.5 L 381.5 305 L 381.5 304 Z " /><path fill="rgb(99,64,33)" stroke="rgb(99,64,33)" stroke-width="1" opacity="1" d="M 412.5 304 L 419 304.5 L 412.5 305 L 412.5 304 Z " /><path fill="rgb(99,64,33)" stroke="rgb(99,64,33)" stroke-width="1" opacity="1" d="M 372.5 305 L 375 305.5 L 372.5 306 L 372.5 305 Z " /><path fill="rgb(99,64,33)" stroke="rgb(99,64,33)" stroke-width="1" opacity="1" d="M 425.5 305 L 428 305.5 L 425.5 306 L 425.5 305 Z " /><path fill="rgb(99,64,33)" stroke="rgb(99,64,33)" stroke-width="1" opacity="1" d="M 231.5 306 L 232 309.5 L 231 309.5 L 231.5 306 Z " /><path fill="rgb(99,64,33)" stroke="rgb(99,64,33)" stroke-width="1" opacity="1" d="M 365.5 306 L 368 306.5 L 365.5 307 L 365.5 306 Z " /><path fill="rgb(99,64,33)" stroke="rgb(99,64,33)" stroke-width="1" opacity="1" d="M 359.5 307 L 362 307.5 L 359.5 308 L 359.5 307 Z " /><path fill="rgb(99,64,33)" stroke="rgb(99,64,33)" stroke-width="1" opacity="1" d="M 438.5 307 L 441 307.5 L 438.5 308 L 438.5 307 Z " /><path fill="rgb(99,64,33)" stroke="rgb(99,64,33)" stroke-width="1" opacity="1" d="M 69.5 312 L 72 312.5 L 69.5 313 L 69.5 312 Z " /><path fill="rgb(99,64,33)" stroke="rgb(99,64,33)" stroke-width="1" opacity="1" d="M 80.5 312 L 82.5 315 L 80.5 312 Z " /><path fill="rgb(99,64,33)" stroke="rgb(99,64,33)" stroke-width="1" opacity="1" d="M 383.5 312 L 390 312.5 L 383.5 313 L 383.5 312 Z " /><path fill="rgb(99,64,33)" stroke="rgb(99,64,33)" stroke-width="1" opacity="1" d="M 410.5 312 L 417 312.5 L 410.5 313 L 410.5 312 Z " /><path fill="rgb(99,64,33)" stroke="rgb(99,64,33)" stroke-width="1" opacity="1" d="M 247.5 313 L 250 313.5 L 247.5 314 L 247.5 313 Z " /><path fill="rgb(99,64,33)" stroke="rgb(99,64,33)" stroke-width="1" opacity="1" d="M 372.5 313 L 375 313.5 L 372.5 314 L 372.5 313 Z " /><path fill="rgb(99,64,33)" stroke="rgb(99,64,33)" stroke-width="1" opacity="1" d="M 425.5 313 L 428 313.5 L 425.5 314 L 425.5 313 Z " /><path fill="rgb(99,64,33)" stroke="rgb(99,64,33)" stroke-width="1" opacity="1" d="M 364.5 314 L 367 314.5 L 364.5 315 L 364.5 314 Z " /><path fill="rgb(99,64,33)" stroke="rgb(99,64,33)" stroke-width="1" opacity="1" d="M 433.5 314 L 436 314.5 L 433.5 315 L 433.5 314 Z " /><path fill="rgb(99,64,33)" stroke="rgb(99,64,33)" stroke-width="1" opacity="1" d="M 358.5 315 L 361 315.5 L 358.5 316 L 358.5 315 Z " /><path fill="rgb(99,64,33)" stroke="rgb(99,64,33)" stroke-width="1" opacity="1" d="M 439.5 315 L 442 315.5 L 439.5 316 L 439.5 315 Z " /><path fill="rgb(99,64,33)" stroke="rgb(99,64,33)" stroke-width="1" opacity="1" d="M 326.5 319 L 325.5 321 L 326.5 319 Z " /><path fill="rgb(99,64,33)" stroke="rgb(99,64,33)" stroke-width="1" opacity="1" d="M 473.5 319 L 474.5 321 L 473.5 319 Z " /><path fill="rgb(99,64,33)" stroke="rgb(99,64,33)" stroke-width="1" opacity="1" d="M 305.5 320 L 304.5 322 L 296 321.5 L 304.5 321 L 305.5 320 Z " /><path fill="rgb(99,64,33)" stroke="rgb(99,64,33)" stroke-width="1" opacity="1" d="M 181.5 321 L 182.5 323 L 181.5 321 Z " /><path fill="rgb(99,64,33)" stroke="rgb(99,64,33)" stroke-width="1" opacity="1" d="M 283.5 321 L 287 321.5 L 283.5 322 L 283.5 321 Z " /><path fill="rgb(99,64,33)" stroke="rgb(99,64,33)" stroke-width="1" opacity="1" d="M 169.5 322 L 168.5 324 L 169.5 322 Z " /><path fill="rgb(99,64,33)" stroke="rgb(99,64,33)" stroke-width="1" opacity="1" d="M 321.5 324 L 320.5 326 L 321.5 324 Z " /><path fill="rgb(99,64,33)" stroke="rgb(99,64,33)" stroke-width="1" opacity="1" d="M 62.5 325 L 63 329.5 L 62 329.5 L 62.5 325 Z " /><path fill="rgb(99,64,33)" stroke="rgb(99,64,33)" stroke-width="1" opacity="1" d="M 165.5 326 L 164.5 328 L 165.5 326 Z " /><path fill="rgb(99,64,33)" stroke="rgb(99,64,33)" stroke-width="1" opacity="1" d="M 384.5 328 L 389 328.5 L 384.5 329 L 384.5 328 Z " /><path fill="rgb(99,64,33)" stroke="rgb(99,64,33)" stroke-width="1" opacity="1" d="M 411.5 328 L 416 328.5 L 411.5 329 L 411.5 328 Z " /><path fill="rgb(99,64,33)" stroke="rgb(99,64,33)" stroke-width="1" opacity="1" d="M 373.5 329 L 376 329.5 L 373.5 330 L 373.5 329 Z " /><path fill="rgb(99,64,33)" stroke="rgb(99,64,33)" stroke-width="1" opacity="1" d="M 424.5 329 L 427 329.5 L 424.5 330 L 424.5 329 Z " /><path fill="rgb(99,64,33)" stroke="rgb(99,64,33)" stroke-width="1" opacity="1" d="M 243.5 336 L 242.5 338 L 243.5 336 Z " /><path fill="rgb(99,64,33)" stroke="rgb(99,64,33)" stroke-width="1" opacity="1" d="M 144.5 342 L 145 344.5 L 144 344.5 L 144.5 342 Z " /><path fill="rgb(99,64,33)" stroke="rgb(99,64,33)" stroke-width="1" opacity="1" d="M 235.5 342 L 232.5 346 L 235.5 342 Z " /><path fill="rgb(99,64,33)" stroke="rgb(99,64,33)" stroke-width="1" opacity="1" d="M 158.5 343 L 159 346.5 L 158 346.5 L 158.5 343 Z " /><path fill="rgb(99,64,33)" stroke="rgb(99,64,33)" stroke-width="1" opacity="1" d="M 160.5 350 L 161.5 352 L 160.5 350 Z " /><path fill="rgb(99,64,33)" stroke="rgb(99,64,33)" stroke-width="1" opacity="1" d="M 373.5 350 L 376 350.5 L 373.5 351 L 373.5 350 Z " /><path fill="rgb(99,64,33)" stroke="rgb(99,64,33)" stroke-width="1" opacity="1" d="M 424.5 350 L 427 350.5 L 424.5 351 L 424.5 350 Z " /><path fill="rgb(99,64,33)" stroke="rgb(99,64,33)" stroke-width="1" opacity="1" d="M 226.5 351 L 224.5 354 L 226.5 351 Z " /><path fill="rgb(99,64,33)" stroke="rgb(99,64,33)" stroke-width="1" opacity="1" d="M 384.5 351 L 389 351.5 L 384.5 352 L 384.5 351 Z " /><path fill="rgb(99,64,33)" stroke="rgb(99,64,33)" stroke-width="1" opacity="1" d="M 411.5 351 L 416 351.5 L 411.5 352 L 411.5 351 Z " /><path fill="rgb(99,64,33)" stroke="rgb(99,64,33)" stroke-width="1" opacity="1" d="M 148.5 358 L 150.5 361 L 148.5 358 Z " /><path fill="rgb(99,64,33)" stroke="rgb(99,64,33)" stroke-width="1" opacity="1" d="M 324.5 358 L 325 360.5 L 324 360.5 L 324.5 358 Z " /><path fill="rgb(99,64,33)" stroke="rgb(99,64,33)" stroke-width="1" opacity="1" d="M 215.5 362 L 214.5 364 L 215.5 362 Z " /><path fill="rgb(99,64,33)" stroke="rgb(99,64,33)" stroke-width="1" opacity="1" d="M 359.5 364 L 362 364.5 L 359.5 365 L 359.5 364 Z " /><path fill="rgb(99,64,33)" stroke="rgb(99,64,33)" stroke-width="1" opacity="1" d="M 325.5 365 L 326 367.5 L 325 367.5 L 325.5 365 Z " /><path fill="rgb(99,64,33)" stroke="rgb(99,64,33)" stroke-width="1" opacity="1" d="M 365.5 365 L 368 365.5 L 365.5 366 L 365.5 365 Z " /><path fill="rgb(99,64,33)" stroke="rgb(99,64,33)" stroke-width="1" opacity="1" d="M 432.5 365 L 435 365.5 L 432.5 366 L 432.5 365 Z " /><path fill="rgb(99,64,33)" stroke="rgb(99,64,33)" stroke-width="1" opacity="1" d="M 373.5 366 L 376 366.5 L 373.5 367 L 373.5 366 Z " /><path fill="rgb(99,64,33)" stroke="rgb(99,64,33)" stroke-width="1" opacity="1" d="M 424.5 366 L 427 366.5 L 424.5 367 L 424.5 366 Z " /><path fill="rgb(99,64,33)" stroke="rgb(99,64,33)" stroke-width="1" opacity="1" d="M 385.5 367 L 392 367.5 L 385.5 368 L 385.5 367 Z " /><path fill="rgb(99,64,33)" stroke="rgb(99,64,33)" stroke-width="1" opacity="1" d="M 408.5 367 L 415 367.5 L 408.5 368 L 408.5 367 Z " /><path fill="rgb(99,64,33)" stroke="rgb(99,64,33)" stroke-width="1" opacity="1" d="M 192.5 371 L 198 371.5 L 192.5 372 L 192.5 371 Z " /><path fill="rgb(99,64,33)" stroke="rgb(99,64,33)" stroke-width="1" opacity="1" d="M 326.5 372 L 327 374.5 L 326 374.5 L 326.5 372 Z " /><path fill="rgb(99,64,33)" stroke="rgb(99,64,33)" stroke-width="1" opacity="1" d="M 327.5 379 L 328 381.5 L 327 381.5 L 327.5 379 Z " /><path fill="rgb(99,64,33)" stroke="rgb(99,64,33)" stroke-width="1" opacity="1" d="M 355.5 385 L 353.5 388 L 355.5 385 Z " /><path fill="rgb(99,64,33)" stroke="rgb(99,64,33)" stroke-width="1" opacity="1" d="M 364.5 385 L 366.5 388 L 364.5 385 Z " /><path fill="rgb(99,64,33)" stroke="rgb(99,64,33)" stroke-width="1" opacity="1" d="M 395.5 385 L 393.5 388 L 395.5 385 Z " /><path fill="rgb(99,64,33)" stroke="rgb(99,64,33)" stroke-width="1" opacity="1" d="M 404.5 385 L 406.5 388 L 404.5 385 Z " /><path fill="rgb(99,64,33)" stroke="rgb(99,64,33)" stroke-width="1" opacity="1" d="M 435.5 385 L 433.5 388 L 435.5 385 Z " /><path fill="rgb(99,64,33)" stroke="rgb(99,64,33)" stroke-width="1" opacity="1" d="M 444.5 385 L 446.5 388 L 444.5 385 Z " /><path fill="rgb(99,64,33)" stroke="rgb(99,64,33)" stroke-width="1" opacity="1" d="M 328.5 386 L 329 388.5 L 328 388.5 L 328.5 386 Z " /><path fill="rgb(99,64,33)" stroke="rgb(99,64,33)" stroke-width="1" opacity="1" d="M 329.5 393 L 330 395.5 L 329 395.5 L 329.5 393 Z " /><path fill="rgb(99,64,33)" stroke="rgb(99,64,33)" stroke-width="1" opacity="1" d="M 330.5 400 L 331 402.5 L 330 402.5 L 330.5 400 Z " /><path fill="rgb(99,64,33)" stroke="rgb(99,64,33)" stroke-width="1" opacity="1" d="M 331.5 407 L 332 409.5 L 331 409.5 L 331.5 407 Z " /><path fill="rgb(99,64,33)" stroke="rgb(99,64,33)" stroke-width="1" opacity="1" d="M 104.5 412 L 109 412.5 L 104.5 413 L 104.5 412 Z " /><path fill="rgb(99,64,33)" stroke="rgb(99,64,33)" stroke-width="1" opacity="1" d="M 332.5 414 L 333 416.5 L 332 416.5 L 332.5 414 Z " /><path fill="rgb(99,64,33)" stroke="rgb(99,64,33)" stroke-width="1" opacity="1" d="M 267.5 417 L 266.5 419 L 267.5 417 Z " /><path fill="rgb(99,64,33)" stroke="rgb(99,64,33)" stroke-width="1" opacity="1" d="M 249.5 420 L 252.5 424 L 249.5 420 Z " /><path fill="rgb(99,64,33)" stroke="rgb(99,64,33)" stroke-width="1" opacity="1" d="M 101.5 421 L 106 421.5 L 101.5 422 L 101.5 421 Z " /><path fill="rgb(99,64,33)" stroke="rgb(99,64,33)" stroke-width="1" opacity="1" d="M 333.5 421 L 334 423.5 L 333 423.5 L 333.5 421 Z " /><path fill="rgb(239,167,62)" stroke="rgb(239,167,62)" stroke-width="1" opacity="1" d="M 335.5 131 L 334.5 133 L 335.5 131 Z " /><path fill="rgb(239,167,62)" stroke="rgb(239,167,62)" stroke-width="1" opacity="1" d="M 328.5 138 L 327.5 140 L 328.5 138 Z " /><path fill="rgb(239,167,62)" stroke="rgb(239,167,62)" stroke-width="1" opacity="1" d="M 466.5 145 L 468.5 148 L 466.5 145 Z " /><path fill="rgb(239,167,62)" stroke="rgb(239,167,62)" stroke-width="1" opacity="1" d="M 319.5 148 L 315.5 153 L 319.5 148 Z " /><path fill="rgb(239,167,62)" stroke="rgb(239,167,62)" stroke-width="1" opacity="1" d="M 403.5 168 L 401.5 171 L 403.5 168 Z " /><path fill="rgb(239,167,62)" stroke="rgb(239,167,62)" stroke-width="1" opacity="1" d="M 382.5 173 L 383.5 175 L 382.5 173 Z " /><path fill="rgb(239,167,62)" stroke="rgb(239,167,62)" stroke-width="1" opacity="1" d="M 307.5 204 L 306.5 206 L 307.5 204 Z " /><path fill="rgb(239,167,62)" stroke="rgb(239,167,62)" stroke-width="1" opacity="1" d="M 319.5 216 L 318.5 218 L 319.5 216 Z " /><path fill="rgb(239,167,62)" stroke="rgb(239,167,62)" stroke-width="1" opacity="1" d="M 299.5 223 L 300 225.5 L 299 225.5 L 299.5 223 Z " /><path fill="rgb(239,167,62)" stroke="rgb(239,167,62)" stroke-width="1" opacity="1" d="M 421.5 238 L 419.5 241 L 421.5 238 Z " /><path fill="rgb(239,167,62)" stroke="rgb(239,167,62)" stroke-width="1" opacity="1" d="M 395.5 249 L 394.5 251 L 395.5 249 Z " /><path fill="rgb(239,167,62)" stroke="rgb(239,167,62)" stroke-width="1" opacity="1" d="M 433.5 250 L 430.5 254 L 433.5 250 Z " /><path fill="rgb(239,167,62)" stroke="rgb(239,167,62)" stroke-width="1" opacity="1" d="M 392.5 252 L 391.5 254 L 392.5 252 Z " /><path fill="rgb(239,167,62)" stroke="rgb(239,167,62)" stroke-width="1" opacity="1" d="M 233.5 264 L 226.5 272 L 233.5 264 Z " /><path fill="rgb(239,167,62)" stroke="rgb(239,167,62)" stroke-width="1" opacity="1" d="M 165.5 301 L 163.5 304 L 165.5 301 Z " /><path fill="rgb(239,167,62)" stroke="rgb(239,167,62)" stroke-width="1" opacity="1" d="M 167.5 323 L 165.5 326 L 167.5 323 Z " /><path fill="rgb(239,167,62)" stroke="rgb(239,167,62)" stroke-width="1" opacity="1" d="M 178.5 336 L 177.5 338 L 178.5 336 Z " /><path fill="rgb(239,167,62)" stroke="rgb(239,167,62)" stroke-width="1" opacity="1" d="M 232.5 344 L 226.5 351 L 232.5 344 Z " /><path fill="rgb(239,167,62)" stroke="rgb(239,167,62)" stroke-width="1" opacity="1" d="M 255.5 405 L 254.5 407 L 255.5 405 Z " /><path fill="rgb(239,167,62)" stroke="rgb(239,167,62)" stroke-width="1" opacity="1" d="M 263.5 408 L 266.5 412 L 263.5 408 Z " /><path fill="rgb(249,174,65)" stroke="rgb(249,174,65)" stroke-width="1" opacity="1" d="M 420.5 124 L 425.5 124 Q 438.5 133 455.5 138 Q 464.9 142.6 471 150.5 L 475 158.5 L 479 174.5 L 479 202.5 L 476 217.5 L 462 246.5 L 457 271.5 Q 453.3 281.8 445.5 288 L 437.5 291 L 420.5 288 L 378.5 288 L 377.5 289 L 362.5 290 L 337.5 296 L 321.5 303 L 308 314.5 L 305 321 L 281.5 321 L 262.5 326 Q 240.4 334.4 226 350.5 L 214.5 363 L 202.5 370 L 190.5 371 L 185.5 369 L 162.5 365 L 150.5 360 L 148 357.5 Q 143.6 352.4 145 341.5 L 159 314.5 L 162 305.5 L 167.5 300 L 176.5 295 L 198.5 289 L 211.5 283 Q 224.3 275.3 234 264.5 L 248 242.5 L 251 232.5 L 265 206.5 L 270 186.5 Q 272.3 179.8 277.5 176 L 307.5 159 L 320 148.5 L 333.5 133 L 343.5 127 L 359.5 126 L 386.5 131 L 402.5 132 L 420.5 124 Z M 414 145 Q 412 148 407 146 L 398 150 L 389 159 L 385 160 L 380 167 L 382 174 L 386 176 L 393 176 L 402 171 L 404 168 Q 407 163 413 162 L 431 168 L 440 167 L 443 162 L 442 156 L 439 152 L 414 145 Z M 326 191 L 308 204 L 301 214 L 299 222 L 301 232 Q 303 237 300 239 L 301 246 L 306 249 L 314 248 L 316 246 L 318 240 Q 319 230 316 225 L 317 220 L 332 208 L 337 202 L 336 195 Q 334 190 326 191 Z M 426 236 L 416 243 L 403 245 L 396 249 L 389 257 L 385 270 L 386 277 L 391 280 L 399 279 L 402 275 Q 402 266 405 263 L 409 261 Q 418 261 425 258 L 431 254 L 436 247 L 435 241 Q 433 235 426 236 Z M 260 290 L 251 297 L 245 297 L 236 300 L 231 306 L 232 313 L 237 316 L 243 316 L 247 314 L 257 313 L 265 309 Q 270 306 272 299 L 271 295 Q 269 288 260 290 Z M 175 319 L 168 323 L 162 330 L 158 342 L 159 350 L 166 354 L 171 353 L 175 348 L 176 340 L 183 334 L 185 330 L 184 324 Q 182 318 175 319 Z " /><path fill="rgb(249,174,65)" stroke="rgb(249,174,65)" stroke-width="1" opacity="1" d="M 258.5 403 Q 261.8 401.9 261 404.5 L 266.5 412 L 271 413 Q 272.1 415.7 269.5 415 Q 263.8 421.3 254.5 424 L 250 420.5 L 249 416.5 Q 251.4 407.4 258.5 403 Z " /><path fill="rgb(249,174,65)" stroke="rgb(249,174,65)" stroke-width="1" opacity="1" d="M 97 410 L 103.5 413 L 110.5 413 L 113.5 412 L 112 414.5 L 107.5 421 Q 98.8 422.8 97 417.5 L 97 410 Z " /><path fill="rgb(198,198,198)" stroke="rgb(198,198,198)" stroke-width="1" opacity="1" d="M 388.5 304 L 424.5 305 L 447.5 309 L 467.5 316 L 479 324.5 L 480 328 Q 463.5 319.4 441.5 315 L 428.5 314 L 427.5 313 L 417.5 313 L 416.5 312 L 383.5 312 L 382.5 313 L 364.5 314 L 345.5 318 L 320 328 L 324.5 321 L 332.5 316 L 352.5 309 L 375.5 305 L 387.5 305 L 388.5 304 Z " /><path fill="rgb(198,198,198)" stroke="rgb(198,198,198)" stroke-width="1" opacity="1" d="M 475.5 356 L 476 358.5 L 475 358.5 L 475.5 356 Z " /><path fill="rgb(198,198,198)" stroke="rgb(198,198,198)" stroke-width="1" opacity="1" d="M 474.5 363 L 475 365.5 L 474 365.5 L 474.5 363 Z " /><path fill="rgb(198,198,198)" stroke="rgb(198,198,198)" stroke-width="1" opacity="1" d="M 370.5 366 L 373 366.5 L 370.5 367 L 370.5 366 Z " /><path fill="rgb(198,198,198)" stroke="rgb(198,198,198)" stroke-width="1" opacity="1" d="M 427.5 366 L 430 366.5 L 427.5 367 L 427.5 366 Z " /><path fill="rgb(198,198,198)" stroke="rgb(198,198,198)" stroke-width="1" opacity="1" d="M 379.5 367 L 385 367.5 L 379.5 368 L 379.5 367 Z " /><path fill="rgb(198,198,198)" stroke="rgb(198,198,198)" stroke-width="1" opacity="1" d="M 415.5 367 L 421 367.5 L 415.5 368 L 415.5 367 Z " /><path fill="rgb(198,198,198)" stroke="rgb(198,198,198)" stroke-width="1" opacity="1" d="M 473.5 370 L 474 372.5 L 473 372.5 L 473.5 370 Z " /><path fill="rgb(198,198,198)" stroke="rgb(198,198,198)" stroke-width="1" opacity="1" d="M 472.5 377 L 473 379.5 L 472 379.5 L 472.5 377 Z " /><path fill="rgb(198,198,198)" stroke="rgb(198,198,198)" stroke-width="1" opacity="1" d="M 471.5 384 L 472 386.5 L 471 386.5 L 471.5 384 Z " /><path fill="rgb(198,198,198)" stroke="rgb(198,198,198)" stroke-width="1" opacity="1" d="M 470.5 391 L 471 393.5 L 470 393.5 L 470.5 391 Z " /><path fill="rgb(198,198,198)" stroke="rgb(198,198,198)" stroke-width="1" opacity="1" d="M 469.5 398 L 470 400.5 L 469 400.5 L 469.5 398 Z " /><path fill="rgb(198,198,198)" stroke="rgb(198,198,198)" stroke-width="1" opacity="1" d="M 468.5 405 L 469 407.5 L 468 407.5 L 468.5 405 Z " /><path fill="rgb(198,198,198)" stroke="rgb(198,198,198)" stroke-width="1" opacity="1" d="M 467.5 412 L 468 414.5 L 467 414.5 L 467.5 412 Z " /><path fill="rgb(198,198,198)" stroke="rgb(198,198,198)" stroke-width="1" opacity="1" d="M 466.5 419 L 467 421.5 L 466 421.5 L 466.5 419 Z " /><path fill="rgb(198,198,198)" stroke="rgb(198,198,198)" stroke-width="1" opacity="1" d="M 335.5 428 L 337.5 431 L 335.5 428 Z " /><path fill="rgb(198,198,198)" stroke="rgb(198,198,198)" stroke-width="1" opacity="1" d="M 464.5 428 L 462.5 431 L 464.5 428 Z " /><path fill="rgb(241,241,241)" stroke="rgb(241,241,241)" stroke-width="1" opacity="1" d="M 324.5 354 L 344.5 362 L 363.5 366 L 378.5 367 L 379.5 368 L 420.5 368 L 421.5 367 L 436.5 366 L 455.5 362 L 475.5 354 L 476 355.5 L 475 356.5 L 466 425.5 L 461.5 431 L 458.5 432 L 442 432 L 448 397.5 L 448 388.5 Q 446.3 382.3 436.5 384 L 432 388.5 L 431 392.5 L 425 432 L 408 432 L 408 388.5 Q 406.3 382.3 396.5 384 L 392 388.5 L 392 432 L 375.5 432 L 375 428.5 L 368 388.5 L 363.5 384 Q 353.8 382.3 352 388.5 L 352 397.5 L 358 432 L 341.5 432 L 335 427.5 L 324.5 354 Z " /><path fill="rgb(0,0,0)" stroke="rgb(0,0,0)" stroke-width="1" opacity="0.996078431372549" d="M 275.5 43 L 283.5 43 L 294.5 45 L 329.5 60 L 335.5 62 L 340.5 62 Q 347 59 356.5 59 L 368.5 63 Q 378.9 74.6 392.5 83 L 406 96.5 L 412.5 110 L 416.5 108 L 429.5 108 L 467.5 126 L 484 140.5 Q 491.1 150.9 494 165.5 Q 492.7 170.3 495 171.5 L 495 206.5 L 490 226.5 L 477 253.5 L 472 277.5 L 461 297 Q 480.8 301.5 492 315.5 Q 496 320.5 496 329.5 L 495 330.5 L 495 336.5 L 494 337.5 L 494 343.5 L 493 344.5 L 493 350.5 L 492 351.5 L 492 357.5 L 491 358.5 L 491 364.5 L 490 365.5 L 490 371.5 L 489 372.5 L 489 378.5 L 488 379.5 L 488 385.5 L 487 386.5 L 487 392.5 L 482 421.5 L 482 427.5 Q 479.6 438.6 471.5 444 L 460.5 448 L 339.5 448 Q 327.5 446 322 437.5 L 318 427.5 L 307 344.5 Q 304.8 343.3 306 338.5 L 304.5 337 L 283.5 337 L 271.5 340 Q 252.6 346.6 240 359.5 L 225.5 375 Q 217.5 382.5 205.5 386 Q 198.8 388.3 188.5 387 L 152.5 379 Q 142.1 375.9 136 368.5 L 129 353.5 L 129 338.5 L 132 329.5 L 143 310.5 L 146 300.5 L 153 290 L 170.5 280 L 189.5 275 L 204.5 268 L 219 257 Q 220.1 253.5 212.5 255 L 211.5 254 L 193.5 254 L 177.5 249 L 160.5 247 L 159.5 248 L 144.5 249 L 133.5 252 Q 119.2 257.7 108.5 267 L 94.5 273 L 85.5 275 L 73.5 275 L 61.5 271 L 37.5 259 L 22 247.5 L 16 235.5 L 15 222.5 L 18 211.5 L 23 203.5 L 50.5 172 L 57.5 168 L 72.5 164 L 91.5 164 L 112.5 160 Q 130.4 153.4 142 140.5 Q 154.2 120.7 171 105.5 Q 176.8 91.3 186.5 81 L 198.5 74 L 235.5 64 L 256.5 50 Q 264.5 45 275.5 43 Z M 279 58 L 267 62 L 240 79 L 215 85 L 199 91 Q 188 102 182 117 L 163 137 L 156 148 Q 142 165 119 174 L 96 179 L 76 179 L 62 183 Q 54 189 50 198 L 36 212 L 31 221 Q 29 231 33 237 L 38 241 L 48 247 L 73 259 L 78 260 L 88 259 L 99 255 Q 111 244 128 238 L 142 234 L 154 233 L 155 232 L 176 233 L 197 239 L 218 239 L 219 240 Q 227 239 231 241 L 236 227 L 244 211 L 230 203 L 223 204 L 214 211 L 208 210 L 204 206 L 205 200 Q 211 191 223 188 L 233 188 L 247 195 L 251 195 L 252 194 L 255 181 L 261 170 L 274 159 L 303 143 L 311 134 Q 320 122 333 114 L 348 110 L 361 110 L 389 115 L 396 115 Q 397 117 398 115 L 392 104 L 359 75 Q 349 74 344 77 L 332 77 L 300 63 L 287 59 Q 280 61 279 58 Z M 420 123 L 403 131 L 387 130 L 359 125 L 344 126 L 336 130 L 324 143 L 312 155 L 276 176 L 270 184 L 264 207 L 252 228 L 245 247 L 236 261 Q 224 275 208 284 Q 194 291 177 294 L 166 300 L 162 304 L 157 317 L 148 332 L 144 342 Q 143 352 147 358 L 152 362 L 163 366 L 192 372 L 203 371 L 219 361 L 222 357 Q 237 337 263 327 L 281 322 L 306 322 L 306 320 L 310 314 L 328 301 L 345 295 L 370 290 L 398 289 L 399 288 L 402 289 L 422 289 L 439 292 L 448 288 L 458 272 L 463 247 L 476 221 L 479 211 L 479 203 L 480 202 L 480 176 Q 478 174 479 169 Q 477 156 470 148 Q 464 140 454 136 Q 438 131 426 123 L 420 123 Z M 380 304 L 347 310 Q 333 314 324 321 Q 319 323 320 329 L 333 323 L 357 316 L 368 315 L 369 314 L 377 314 L 378 313 L 399 313 L 400 312 L 402 313 L 423 313 L 424 314 L 432 314 L 439 316 L 444 316 L 468 323 L 480 329 L 479 324 Q 473 317 465 314 L 454 310 L 436 306 L 422 305 L 421 304 L 380 304 Z M 380 328 L 351 333 L 336 339 Q 332 338 333 341 L 355 348 L 372 351 L 379 351 L 380 352 L 421 352 Q 422 349 429 351 L 450 347 L 465 341 Q 468 342 467 339 L 450 333 L 430 329 L 422 329 L 421 328 L 380 328 Z M 323 353 L 324 356 L 333 425 L 335 430 L 339 432 L 359 432 L 353 399 L 353 389 L 357 385 L 361 384 L 364 385 L 368 392 L 373 427 L 374 428 Q 373 432 375 432 L 392 432 L 392 393 L 393 389 Q 395 383 404 385 L 407 389 L 408 393 L 408 432 L 426 432 L 433 389 L 440 384 L 444 385 L 447 389 L 447 399 L 441 432 L 462 432 L 464 431 L 467 425 L 476 356 L 477 353 L 456 361 L 438 365 L 423 366 L 422 367 L 402 367 L 401 368 L 399 367 L 379 367 L 378 366 L 363 365 L 345 361 L 323 353 Z " /><path fill="rgb(0,0,0)" stroke="rgb(0,0,0)" stroke-width="1" opacity="0.996078431372549" d="M 303.5 83 L 324.5 83 L 328 86.5 L 329 91.5 L 324.5 97 L 321.5 98 L 304.5 98 Q 298.8 99.3 296 103.5 Q 293.6 113.6 286.5 119 Q 284.8 121.8 279.5 121 L 274 116.5 Q 272.8 109.3 276.5 107 L 279 105.5 Q 282.3 93.3 291.5 87 L 303.5 83 Z " /><path fill="rgb(0,0,0)" stroke="rgb(0,0,0)" stroke-width="1" opacity="0.996078431372549" d="M 57.5 93 L 67.5 93 L 72.5 95 L 82.5 96 L 93.5 100 L 101 106.5 Q 104.3 112.2 104 121.5 L 100 132.5 L 95.5 137 Q 86.9 144.4 70.5 144 L 59.5 141 L 52 135.5 L 50 129.5 L 53 117.5 Q 47.8 113.2 48 103.5 L 53.5 95 L 57.5 93 Z M 66 109 L 69 117 L 67 125 L 69 128 Q 79 130 85 126 Q 90 124 88 116 L 86 113 L 80 111 L 66 109 Z " /><path fill="rgb(0,0,0)" stroke="rgb(0,0,0)" stroke-width="1" opacity="0.996078431372549" d="M 220.5 115 Q 228.5 113.5 230 118.5 L 231 122.5 L 225.5 131 L 216.5 136 L 206.5 137 L 202.5 139 L 196.5 139 L 193 136.5 L 192 129.5 L 195.5 125 Q 202.9 121.4 213.5 121 L 220.5 115 Z " /><path fill="rgb(0,0,0)" stroke="rgb(0,0,0)" stroke-width="1" opacity="0.996078431372549" d="M 411.5 146 Q 429.3 147.7 441 155.5 L 442 161.5 L 437.5 167 L 431.5 167 L 417.5 162 L 408.5 162 L 396.5 173 Q 392.9 175.9 385.5 175 Q 381.1 172.9 381 166.5 L 385.5 161 L 393 156.5 L 396.5 152 L 403.5 148 L 411.5 146 Z " /><path fill="rgb(0,0,0)" stroke="rgb(0,0,0)" stroke-width="1" opacity="0.996078431372549" d="M 152.5 181 L 163.5 181 L 167 184.5 L 168 188.5 L 163.5 195 L 155.5 196 L 149 201.5 L 141.5 210 L 134.5 213 L 128 209.5 L 127 202.5 L 129.5 199 L 137 193.5 L 142.5 186 L 152.5 181 Z " /><path fill="rgb(0,0,0)" stroke="rgb(0,0,0)" stroke-width="1" opacity="0.996078431372549" d="M 325.5 192 Q 334.5 190.5 336 196.5 L 336 201.5 L 334 205 L 317 217.5 L 315 224.5 Q 318.4 229.6 317 239.5 L 316 243.5 L 311.5 248 Q 305.4 248.7 303 247 L 301 243.5 L 301 238.5 Q 303.5 237 302 231.5 L 300 221.5 L 303 211.5 L 311.5 202 L 325.5 192 Z " /><path fill="rgb(0,0,0)" stroke="rgb(0,0,0)" stroke-width="1" opacity="0.996078431372549" d="M 71.5 204 Q 80.8 202.7 83 208.5 Q 84.3 215.8 80.5 218 L 70.5 220 L 62.5 228 L 55.5 229 Q 49.5 227.5 51 218.5 L 58.5 210 Q 63.3 205.3 71.5 204 Z " /><path fill="rgb(0,0,0)" stroke="rgb(0,0,0)" stroke-width="1" opacity="0.996078431372549" d="M 425.5 237 Q 431.3 236.2 433 239.5 L 435 246.5 L 427.5 255 L 418.5 259 L 408.5 260 L 403 264.5 L 401 274.5 L 398.5 278 L 390.5 279 Q 385.1 277.4 386 269.5 L 389 258.5 L 397.5 249 Q 404.4 243.9 416.5 244 L 425.5 237 Z " /><path fill="rgb(0,0,0)" stroke="rgb(0,0,0)" stroke-width="1" opacity="0.996078431372549" d="M 260.5 291 Q 268.5 289.5 270 294.5 L 271 298.5 L 265.5 307 L 256.5 312 L 246.5 313 L 242.5 315 L 236.5 315 L 233 312.5 L 232 305.5 L 235.5 301 Q 242.8 297.3 253.5 297 L 260.5 291 Z " /><path fill="rgb(0,0,0)" stroke="rgb(0,0,0)" stroke-width="1" opacity="0.996078431372549" d="M 74.5 296 Q 89.5 295.5 95 304.5 Q 102.8 314.2 104 330.5 Q 101.9 338.9 95.5 343 L 87.5 347 L 76.5 350 L 50.5 351 L 45 347.5 Q 42 344.5 43 337.5 L 46 327.5 Q 40.3 322.7 40 312.5 Q 41.5 306 46.5 303 L 55.5 299 L 65.5 297 L 73.5 297 L 74.5 296 Z M 78 311 L 77 312 L 63 313 L 57 316 L 62 325 L 61 335 L 61 336 L 74 335 L 88 330 L 88 324 L 84 316 L 78 311 Z " /><path fill="rgb(0,0,0)" stroke="rgb(0,0,0)" stroke-width="1" opacity="0.996078431372549" d="M 174.5 320 Q 181.4 319.1 183 323.5 L 184 329.5 L 179.5 335 L 176 337.5 L 174 347.5 L 171.5 351 L 165.5 353 L 160 349.5 L 159 341.5 L 162 331.5 L 170.5 322 L 174.5 320 Z " /><path fill="rgb(0,0,0)" stroke="rgb(0,0,0)" stroke-width="1" opacity="0.996078431372549" d="M 260.5 385 Q 270.3 384.7 273 391.5 L 276.5 398 Q 286.6 399.4 291 406.5 Q 293.3 409.7 292 416.5 L 285.5 425 L 264.5 438 Q 259.5 441 250.5 440 Q 241.8 437.2 237 430.5 L 233 421.5 L 233 413.5 Q 236.6 397.6 248.5 390 L 260.5 385 Z M 259 402 L 257 403 Q 250 407 248 417 L 249 421 L 255 425 Q 266 421 274 414 L 269 412 Q 263 410 262 404 L 259 402 Z " /><path fill="rgb(0,0,0)" stroke="rgb(0,0,0)" stroke-width="1" opacity="0.996078431372549" d="M 90.5 389 L 96.5 389 L 107.5 397 Q 112.6 393.6 122.5 395 L 129 399.5 L 132 409.5 Q 128.3 423.8 119.5 433 Q 112.5 439 97.5 437 L 86 430.5 L 81 420.5 L 81 403.5 Q 82.3 395.8 86.5 391 L 90.5 389 Z M 96 408 L 96 418 L 97 420 L 101 422 L 110 421 L 115 411 L 111 412 L 104 412 L 96 408 Z " /></svg>